%TF.GenerationSoftware,KiCad,Pcbnew,9.0.3*%
%TF.CreationDate,2026-02-16T17:36:19+03:00*%
%TF.ProjectId,NightGlow V0.1 PCB,4e696768-7447-46c6-9f77-2056302e3120,rev?*%
%TF.SameCoordinates,Original*%
%TF.FileFunction,Legend,Top*%
%TF.FilePolarity,Positive*%
%FSLAX46Y46*%
G04 Gerber Fmt 4.6, Leading zero omitted, Abs format (unit mm)*
G04 Created by KiCad (PCBNEW 9.0.3) date 2026-02-16 17:36:19*
%MOMM*%
%LPD*%
G01*
G04 APERTURE LIST*
G04 Aperture macros list*
%AMRoundRect*
0 Rectangle with rounded corners*
0 $1 Rounding radius*
0 $2 $3 $4 $5 $6 $7 $8 $9 X,Y pos of 4 corners*
0 Add a 4 corners polygon primitive as box body*
4,1,4,$2,$3,$4,$5,$6,$7,$8,$9,$2,$3,0*
0 Add four circle primitives for the rounded corners*
1,1,$1+$1,$2,$3*
1,1,$1+$1,$4,$5*
1,1,$1+$1,$6,$7*
1,1,$1+$1,$8,$9*
0 Add four rect primitives between the rounded corners*
20,1,$1+$1,$2,$3,$4,$5,0*
20,1,$1+$1,$4,$5,$6,$7,0*
20,1,$1+$1,$6,$7,$8,$9,0*
20,1,$1+$1,$8,$9,$2,$3,0*%
%AMRotRect*
0 Rectangle, with rotation*
0 The origin of the aperture is its center*
0 $1 length*
0 $2 width*
0 $3 Rotation angle, in degrees counterclockwise*
0 Add horizontal line*
21,1,$1,$2,0,0,$3*%
G04 Aperture macros list end*
%ADD10C,0.200000*%
%ADD11C,0.150000*%
%ADD12C,0.120000*%
%ADD13C,0.152400*%
%ADD14RoundRect,0.200000X-0.275000X0.200000X-0.275000X-0.200000X0.275000X-0.200000X0.275000X0.200000X0*%
%ADD15RotRect,2.200000X2.200000X179.244000*%
%ADD16RotRect,1.250000X2.200000X179.244000*%
%ADD17RoundRect,0.200000X0.200000X0.275000X-0.200000X0.275000X-0.200000X-0.275000X0.200000X-0.275000X0*%
%ADD18RotRect,2.200000X2.200000X136.891000*%
%ADD19RotRect,1.250000X2.200000X136.891000*%
%ADD20RotRect,2.200000X2.200000X321.429000*%
%ADD21RotRect,1.250000X2.200000X321.429000*%
%ADD22RotRect,2.200000X2.200000X327.479000*%
%ADD23RotRect,1.250000X2.200000X327.479000*%
%ADD24RoundRect,0.150000X0.150000X-0.625000X0.150000X0.625000X-0.150000X0.625000X-0.150000X-0.625000X0*%
%ADD25RoundRect,0.243750X0.243750X0.456250X-0.243750X0.456250X-0.243750X-0.456250X0.243750X-0.456250X0*%
%ADD26RoundRect,0.250000X0.413306X-1.056508X0.968688X-0.590487X-0.413306X1.056508X-0.968688X0.590487X0*%
%ADD27RoundRect,0.150000X-0.150000X0.587500X-0.150000X-0.587500X0.150000X-0.587500X0.150000X0.587500X0*%
%ADD28RotRect,2.200000X2.200000X289.286000*%
%ADD29RotRect,1.250000X2.200000X289.286000*%
%ADD30RoundRect,0.200000X0.275000X-0.200000X0.275000X0.200000X-0.275000X0.200000X-0.275000X-0.200000X0*%
%ADD31RotRect,2.200000X2.200000X12.857000*%
%ADD32RotRect,1.250000X2.200000X12.857000*%
%ADD33C,2.000000*%
%ADD34RotRect,2.200000X2.200000X73.361000*%
%ADD35RotRect,1.250000X2.200000X73.361000*%
%ADD36R,1.500000X1.300000*%
%ADD37RoundRect,0.225000X-0.225000X-0.250000X0.225000X-0.250000X0.225000X0.250000X-0.225000X0.250000X0*%
%ADD38R,1.700000X1.700000*%
%ADD39C,1.700000*%
%ADD40RotRect,2.200000X2.200000X94.538000*%
%ADD41RotRect,1.250000X2.200000X94.538000*%
%ADD42RotRect,2.200000X2.200000X64.286000*%
%ADD43RotRect,1.250000X2.200000X64.286000*%
%ADD44RoundRect,0.250000X1.500000X0.550000X-1.500000X0.550000X-1.500000X-0.550000X1.500000X-0.550000X0*%
%ADD45RotRect,2.200000X2.200000X348.655000*%
%ADD46RotRect,1.250000X2.200000X348.655000*%
%ADD47RoundRect,0.150000X0.150000X-0.825000X0.150000X0.825000X-0.150000X0.825000X-0.150000X-0.825000X0*%
%ADD48RoundRect,0.250000X1.250000X0.550000X-1.250000X0.550000X-1.250000X-0.550000X1.250000X-0.550000X0*%
%ADD49RotRect,2.200000X2.200000X19.286000*%
%ADD50RotRect,1.250000X2.200000X19.286000*%
%ADD51C,1.400000*%
%ADD52RoundRect,0.225000X-0.250000X0.225000X-0.250000X-0.225000X0.250000X-0.225000X0.250000X0.225000X0*%
%ADD53R,2.200000X2.200000*%
%ADD54R,2.200000X1.250000*%
%ADD55RotRect,2.200000X2.200000X115.714000*%
%ADD56RotRect,1.250000X2.200000X115.714000*%
%ADD57RotRect,2.200000X2.200000X218.571000*%
%ADD58RotRect,1.250000X2.200000X218.571000*%
%ADD59R,0.965200X1.244600*%
%ADD60RotRect,2.200000X2.200000X169.286000*%
%ADD61RotRect,1.250000X2.200000X169.286000*%
%ADD62C,1.600000*%
%ADD63RotRect,2.200000X2.200000X199.286000*%
%ADD64RotRect,1.250000X2.200000X199.286000*%
%ADD65RotRect,2.200000X2.200000X285.126000*%
%ADD66RotRect,1.250000X2.200000X285.126000*%
%ADD67RoundRect,0.250000X0.312500X0.625000X-0.312500X0.625000X-0.312500X-0.625000X0.312500X-0.625000X0*%
%ADD68RoundRect,0.225000X0.225000X0.250000X-0.225000X0.250000X-0.225000X-0.250000X0.225000X-0.250000X0*%
%ADD69RotRect,2.200000X2.200000X242.773000*%
%ADD70RotRect,1.250000X2.200000X242.773000*%
%ADD71RotRect,2.200000X2.200000X52.185000*%
%ADD72RotRect,1.250000X2.200000X52.185000*%
%ADD73RotRect,2.200000X2.200000X221.597000*%
%ADD74RotRect,1.250000X2.200000X221.597000*%
%ADD75RotRect,2.200000X2.200000X139.286000*%
%ADD76RotRect,1.250000X2.200000X139.286000*%
%ADD77RoundRect,0.208334X0.791666X-0.791666X0.791666X0.791666X-0.791666X0.791666X-0.791666X-0.791666X0*%
%ADD78RotRect,2.200000X2.200000X200.420000*%
%ADD79RotRect,1.250000X2.200000X200.420000*%
%ADD80RotRect,2.200000X2.200000X259.286000*%
%ADD81RotRect,1.250000X2.200000X259.286000*%
%ADD82RoundRect,0.150000X0.150000X-0.587500X0.150000X0.587500X-0.150000X0.587500X-0.150000X-0.587500X0*%
%ADD83RotRect,2.200000X2.200000X349.286000*%
%ADD84RotRect,1.250000X2.200000X349.286000*%
%ADD85RotRect,2.200000X2.200000X31.008000*%
%ADD86RotRect,1.250000X2.200000X31.008000*%
%ADD87RoundRect,0.150000X-0.150000X0.825000X-0.150000X-0.825000X0.150000X-0.825000X0.150000X0.825000X0*%
%ADD88RoundRect,0.150000X0.587500X0.150000X-0.587500X0.150000X-0.587500X-0.150000X0.587500X-0.150000X0*%
%ADD89RoundRect,0.250000X-0.312500X-0.625000X0.312500X-0.625000X0.312500X0.625000X-0.312500X0.625000X0*%
%ADD90RotRect,2.200000X2.200000X306.303000*%
%ADD91RotRect,1.250000X2.200000X306.303000*%
%ADD92RotRect,2.200000X2.200000X229.286000*%
%ADD93RotRect,1.250000X2.200000X229.286000*%
%ADD94R,7.000000X3.500000*%
%ADD95RotRect,2.200000X2.200000X49.286000*%
%ADD96RotRect,1.250000X2.200000X49.286000*%
%ADD97RoundRect,0.250000X-0.250000X-0.475000X0.250000X-0.475000X0.250000X0.475000X-0.250000X0.475000X0*%
%ADD98RoundRect,0.250000X-0.475000X0.250000X-0.475000X-0.250000X0.475000X-0.250000X0.475000X0.250000X0*%
%ADD99RotRect,2.200000X2.200000X167.143000*%
%ADD100RotRect,1.250000X2.200000X167.143000*%
%ADD101RotRect,2.200000X2.200000X158.067000*%
%ADD102RotRect,1.250000X2.200000X158.067000*%
%ADD103RotRect,2.200000X2.200000X79.286000*%
%ADD104RotRect,1.250000X2.200000X79.286000*%
%ADD105RotRect,2.200000X2.200000X263.950000*%
%ADD106RotRect,1.250000X2.200000X263.950000*%
%ADD107RotRect,2.200000X2.200000X109.286000*%
%ADD108RotRect,1.250000X2.200000X109.286000*%
%ADD109RoundRect,0.500000X-0.500000X-1.400000X0.500000X-1.400000X0.500000X1.400000X-0.500000X1.400000X0*%
%ADD110RoundRect,0.375000X-0.625000X-0.375000X0.625000X-0.375000X0.625000X0.375000X-0.625000X0.375000X0*%
%ADD111RotRect,2.200000X2.200000X9.832000*%
%ADD112RotRect,1.250000X2.200000X9.832000*%
%ADD113RotRect,2.200000X2.200000X319.286000*%
%ADD114RotRect,1.250000X2.200000X319.286000*%
%ADD115RoundRect,0.250000X0.475000X-0.250000X0.475000X0.250000X-0.475000X0.250000X-0.475000X-0.250000X0*%
G04 APERTURE END LIST*
D10*
G36*
X1421779Y40810500D02*
G01*
X1421779Y42116124D01*
X1677538Y42116124D01*
X2210329Y41242083D01*
X2210329Y42116124D01*
X2454578Y42116124D01*
X2454578Y40810500D01*
X2190802Y40810500D01*
X1665949Y41671523D01*
X1665949Y40810500D01*
X1421779Y40810500D01*
G37*
G36*
X1528085Y35660500D02*
G01*
X1528085Y36950883D01*
X1790988Y36950883D01*
X1790988Y35878950D01*
X2444594Y35878950D01*
X2444594Y35660500D01*
X1528085Y35660500D01*
G37*
D11*
X-21445180Y37920833D02*
X-21921371Y37587500D01*
X-21445180Y37349405D02*
X-22445180Y37349405D01*
X-22445180Y37349405D02*
X-22445180Y37730357D01*
X-22445180Y37730357D02*
X-22397561Y37825595D01*
X-22397561Y37825595D02*
X-22349942Y37873214D01*
X-22349942Y37873214D02*
X-22254704Y37920833D01*
X-22254704Y37920833D02*
X-22111847Y37920833D01*
X-22111847Y37920833D02*
X-22016609Y37873214D01*
X-22016609Y37873214D02*
X-21968990Y37825595D01*
X-21968990Y37825595D02*
X-21921371Y37730357D01*
X-21921371Y37730357D02*
X-21921371Y37349405D01*
X-22445180Y38825595D02*
X-22445180Y38349405D01*
X-22445180Y38349405D02*
X-21968990Y38301786D01*
X-21968990Y38301786D02*
X-22016609Y38349405D01*
X-22016609Y38349405D02*
X-22064228Y38444643D01*
X-22064228Y38444643D02*
X-22064228Y38682738D01*
X-22064228Y38682738D02*
X-22016609Y38777976D01*
X-22016609Y38777976D02*
X-21968990Y38825595D01*
X-21968990Y38825595D02*
X-21873752Y38873214D01*
X-21873752Y38873214D02*
X-21635657Y38873214D01*
X-21635657Y38873214D02*
X-21540419Y38825595D01*
X-21540419Y38825595D02*
X-21492800Y38777976D01*
X-21492800Y38777976D02*
X-21445180Y38682738D01*
X-21445180Y38682738D02*
X-21445180Y38444643D01*
X-21445180Y38444643D02*
X-21492800Y38349405D01*
X-21492800Y38349405D02*
X-21540419Y38301786D01*
X-17879166Y41745180D02*
X-18212499Y42221371D01*
X-18450594Y41745180D02*
X-18450594Y42745180D01*
X-18450594Y42745180D02*
X-18069642Y42745180D01*
X-18069642Y42745180D02*
X-17974404Y42697561D01*
X-17974404Y42697561D02*
X-17926785Y42649942D01*
X-17926785Y42649942D02*
X-17879166Y42554704D01*
X-17879166Y42554704D02*
X-17879166Y42411847D01*
X-17879166Y42411847D02*
X-17926785Y42316609D01*
X-17926785Y42316609D02*
X-17974404Y42268990D01*
X-17974404Y42268990D02*
X-18069642Y42221371D01*
X-18069642Y42221371D02*
X-18450594Y42221371D01*
X-17545832Y42745180D02*
X-16926785Y42745180D01*
X-16926785Y42745180D02*
X-17260118Y42364228D01*
X-17260118Y42364228D02*
X-17117261Y42364228D01*
X-17117261Y42364228D02*
X-17022023Y42316609D01*
X-17022023Y42316609D02*
X-16974404Y42268990D01*
X-16974404Y42268990D02*
X-16926785Y42173752D01*
X-16926785Y42173752D02*
X-16926785Y41935657D01*
X-16926785Y41935657D02*
X-16974404Y41840419D01*
X-16974404Y41840419D02*
X-17022023Y41792800D01*
X-17022023Y41792800D02*
X-17117261Y41745180D01*
X-17117261Y41745180D02*
X-17402975Y41745180D01*
X-17402975Y41745180D02*
X-17498213Y41792800D01*
X-17498213Y41792800D02*
X-17545832Y41840419D01*
X-11142857Y-19854819D02*
X-11476190Y-19378628D01*
X-11714285Y-19854819D02*
X-11714285Y-18854819D01*
X-11714285Y-18854819D02*
X-11333333Y-18854819D01*
X-11333333Y-18854819D02*
X-11238095Y-18902438D01*
X-11238095Y-18902438D02*
X-11190476Y-18950057D01*
X-11190476Y-18950057D02*
X-11142857Y-19045295D01*
X-11142857Y-19045295D02*
X-11142857Y-19188152D01*
X-11142857Y-19188152D02*
X-11190476Y-19283390D01*
X-11190476Y-19283390D02*
X-11238095Y-19331009D01*
X-11238095Y-19331009D02*
X-11333333Y-19378628D01*
X-11333333Y-19378628D02*
X-11714285Y-19378628D01*
X-10190476Y-19854819D02*
X-10761904Y-19854819D01*
X-10476190Y-19854819D02*
X-10476190Y-18854819D01*
X-10476190Y-18854819D02*
X-10571428Y-18997676D01*
X-10571428Y-18997676D02*
X-10666666Y-19092914D01*
X-10666666Y-19092914D02*
X-10761904Y-19140533D01*
X-9333333Y-19188152D02*
X-9333333Y-19854819D01*
X-9571428Y-18807200D02*
X-9809523Y-19521485D01*
X-9809523Y-19521485D02*
X-9190476Y-19521485D01*
X-3045180Y-14161904D02*
X-2235657Y-14161904D01*
X-2235657Y-14161904D02*
X-2140419Y-14114285D01*
X-2140419Y-14114285D02*
X-2092800Y-14066666D01*
X-2092800Y-14066666D02*
X-2045180Y-13971428D01*
X-2045180Y-13971428D02*
X-2045180Y-13780952D01*
X-2045180Y-13780952D02*
X-2092800Y-13685714D01*
X-2092800Y-13685714D02*
X-2140419Y-13638095D01*
X-2140419Y-13638095D02*
X-2235657Y-13590476D01*
X-2235657Y-13590476D02*
X-3045180Y-13590476D01*
X-2711847Y-12685714D02*
X-2045180Y-12685714D01*
X-3092800Y-12923809D02*
X-2378514Y-13161904D01*
X-2378514Y-13161904D02*
X-2378514Y-12542857D01*
X-8268094Y-23554819D02*
X-8268094Y-22554819D01*
X-8268094Y-22554819D02*
X-8029999Y-22554819D01*
X-8029999Y-22554819D02*
X-7887142Y-22602438D01*
X-7887142Y-22602438D02*
X-7791904Y-22697676D01*
X-7791904Y-22697676D02*
X-7744285Y-22792914D01*
X-7744285Y-22792914D02*
X-7696666Y-22983390D01*
X-7696666Y-22983390D02*
X-7696666Y-23126247D01*
X-7696666Y-23126247D02*
X-7744285Y-23316723D01*
X-7744285Y-23316723D02*
X-7791904Y-23411961D01*
X-7791904Y-23411961D02*
X-7887142Y-23507200D01*
X-7887142Y-23507200D02*
X-8029999Y-23554819D01*
X-8029999Y-23554819D02*
X-8268094Y-23554819D01*
X-7363332Y-22554819D02*
X-6744285Y-22554819D01*
X-6744285Y-22554819D02*
X-7077618Y-22935771D01*
X-7077618Y-22935771D02*
X-6934761Y-22935771D01*
X-6934761Y-22935771D02*
X-6839523Y-22983390D01*
X-6839523Y-22983390D02*
X-6791904Y-23031009D01*
X-6791904Y-23031009D02*
X-6744285Y-23126247D01*
X-6744285Y-23126247D02*
X-6744285Y-23364342D01*
X-6744285Y-23364342D02*
X-6791904Y-23459580D01*
X-6791904Y-23459580D02*
X-6839523Y-23507200D01*
X-6839523Y-23507200D02*
X-6934761Y-23554819D01*
X-6934761Y-23554819D02*
X-7220475Y-23554819D01*
X-7220475Y-23554819D02*
X-7315713Y-23507200D01*
X-7315713Y-23507200D02*
X-7363332Y-23459580D01*
X12727645Y-16595408D02*
X12166207Y-16444888D01*
X12289905Y-16962715D02*
X11647118Y-16196671D01*
X11647118Y-16196671D02*
X11938944Y-15951799D01*
X11938944Y-15951799D02*
X12042510Y-15927060D01*
X12042510Y-15927060D02*
X12109597Y-15932929D01*
X12109597Y-15932929D02*
X12207293Y-15975277D01*
X12207293Y-15975277D02*
X12299120Y-16084712D01*
X12299120Y-16084712D02*
X12323859Y-16188277D01*
X12323859Y-16188277D02*
X12317990Y-16255365D01*
X12317990Y-16255365D02*
X12275642Y-16353061D01*
X12275642Y-16353061D02*
X11983816Y-16597932D01*
X12955729Y-15533751D02*
X13384254Y-16044447D01*
X12528466Y-15394969D02*
X12805209Y-16095188D01*
X12805209Y-16095188D02*
X13279427Y-15697272D01*
X-18042857Y-5354819D02*
X-18376190Y-4878628D01*
X-18614285Y-5354819D02*
X-18614285Y-4354819D01*
X-18614285Y-4354819D02*
X-18233333Y-4354819D01*
X-18233333Y-4354819D02*
X-18138095Y-4402438D01*
X-18138095Y-4402438D02*
X-18090476Y-4450057D01*
X-18090476Y-4450057D02*
X-18042857Y-4545295D01*
X-18042857Y-4545295D02*
X-18042857Y-4688152D01*
X-18042857Y-4688152D02*
X-18090476Y-4783390D01*
X-18090476Y-4783390D02*
X-18138095Y-4831009D01*
X-18138095Y-4831009D02*
X-18233333Y-4878628D01*
X-18233333Y-4878628D02*
X-18614285Y-4878628D01*
X-17090476Y-5354819D02*
X-17661904Y-5354819D01*
X-17376190Y-5354819D02*
X-17376190Y-4354819D01*
X-17376190Y-4354819D02*
X-17471428Y-4497676D01*
X-17471428Y-4497676D02*
X-17566666Y-4592914D01*
X-17566666Y-4592914D02*
X-17661904Y-4640533D01*
X-16185714Y-4354819D02*
X-16661904Y-4354819D01*
X-16661904Y-4354819D02*
X-16709523Y-4831009D01*
X-16709523Y-4831009D02*
X-16661904Y-4783390D01*
X-16661904Y-4783390D02*
X-16566666Y-4735771D01*
X-16566666Y-4735771D02*
X-16328571Y-4735771D01*
X-16328571Y-4735771D02*
X-16233333Y-4783390D01*
X-16233333Y-4783390D02*
X-16185714Y-4831009D01*
X-16185714Y-4831009D02*
X-16138095Y-4926247D01*
X-16138095Y-4926247D02*
X-16138095Y-5164342D01*
X-16138095Y-5164342D02*
X-16185714Y-5259580D01*
X-16185714Y-5259580D02*
X-16233333Y-5307200D01*
X-16233333Y-5307200D02*
X-16328571Y-5354819D01*
X-16328571Y-5354819D02*
X-16566666Y-5354819D01*
X-16566666Y-5354819D02*
X-16661904Y-5307200D01*
X-16661904Y-5307200D02*
X-16709523Y-5259580D01*
X-19361904Y35745180D02*
X-19361904Y34935657D01*
X-19361904Y34935657D02*
X-19314285Y34840419D01*
X-19314285Y34840419D02*
X-19266666Y34792800D01*
X-19266666Y34792800D02*
X-19171428Y34745180D01*
X-19171428Y34745180D02*
X-18980952Y34745180D01*
X-18980952Y34745180D02*
X-18885714Y34792800D01*
X-18885714Y34792800D02*
X-18838095Y34840419D01*
X-18838095Y34840419D02*
X-18790476Y34935657D01*
X-18790476Y34935657D02*
X-18790476Y35745180D01*
X-17790476Y34745180D02*
X-18361904Y34745180D01*
X-18076190Y34745180D02*
X-18076190Y35745180D01*
X-18076190Y35745180D02*
X-18171428Y35602323D01*
X-18171428Y35602323D02*
X-18266666Y35507085D01*
X-18266666Y35507085D02*
X-18361904Y35459466D01*
X-4445180Y-23642857D02*
X-4921371Y-23976190D01*
X-4445180Y-24214285D02*
X-5445180Y-24214285D01*
X-5445180Y-24214285D02*
X-5445180Y-23833333D01*
X-5445180Y-23833333D02*
X-5397561Y-23738095D01*
X-5397561Y-23738095D02*
X-5349942Y-23690476D01*
X-5349942Y-23690476D02*
X-5254704Y-23642857D01*
X-5254704Y-23642857D02*
X-5111847Y-23642857D01*
X-5111847Y-23642857D02*
X-5016609Y-23690476D01*
X-5016609Y-23690476D02*
X-4968990Y-23738095D01*
X-4968990Y-23738095D02*
X-4921371Y-23833333D01*
X-4921371Y-23833333D02*
X-4921371Y-24214285D01*
X-4445180Y-22690476D02*
X-4445180Y-23261904D01*
X-4445180Y-22976190D02*
X-5445180Y-22976190D01*
X-5445180Y-22976190D02*
X-5302323Y-23071428D01*
X-5302323Y-23071428D02*
X-5207085Y-23166666D01*
X-5207085Y-23166666D02*
X-5159466Y-23261904D01*
X-5445180Y-22071428D02*
X-5445180Y-21976190D01*
X-5445180Y-21976190D02*
X-5397561Y-21880952D01*
X-5397561Y-21880952D02*
X-5349942Y-21833333D01*
X-5349942Y-21833333D02*
X-5254704Y-21785714D01*
X-5254704Y-21785714D02*
X-5064228Y-21738095D01*
X-5064228Y-21738095D02*
X-4826133Y-21738095D01*
X-4826133Y-21738095D02*
X-4635657Y-21785714D01*
X-4635657Y-21785714D02*
X-4540419Y-21833333D01*
X-4540419Y-21833333D02*
X-4492800Y-21880952D01*
X-4492800Y-21880952D02*
X-4445180Y-21976190D01*
X-4445180Y-21976190D02*
X-4445180Y-22071428D01*
X-4445180Y-22071428D02*
X-4492800Y-22166666D01*
X-4492800Y-22166666D02*
X-4540419Y-22214285D01*
X-4540419Y-22214285D02*
X-4635657Y-22261904D01*
X-4635657Y-22261904D02*
X-4826133Y-22309523D01*
X-4826133Y-22309523D02*
X-5064228Y-22309523D01*
X-5064228Y-22309523D02*
X-5254704Y-22261904D01*
X-5254704Y-22261904D02*
X-5349942Y-22214285D01*
X-5349942Y-22214285D02*
X-5397561Y-22166666D01*
X-5397561Y-22166666D02*
X-5445180Y-22071428D01*
X133333Y48140419D02*
X85714Y48092800D01*
X85714Y48092800D02*
X-57142Y48045180D01*
X-57142Y48045180D02*
X-152380Y48045180D01*
X-152380Y48045180D02*
X-295237Y48092800D01*
X-295237Y48092800D02*
X-390475Y48188038D01*
X-390475Y48188038D02*
X-438094Y48283276D01*
X-438094Y48283276D02*
X-485713Y48473752D01*
X-485713Y48473752D02*
X-485713Y48616609D01*
X-485713Y48616609D02*
X-438094Y48807085D01*
X-438094Y48807085D02*
X-390475Y48902323D01*
X-390475Y48902323D02*
X-295237Y48997561D01*
X-295237Y48997561D02*
X-152380Y49045180D01*
X-152380Y49045180D02*
X-57142Y49045180D01*
X-57142Y49045180D02*
X85714Y48997561D01*
X85714Y48997561D02*
X133333Y48949942D01*
X514286Y48949942D02*
X561905Y48997561D01*
X561905Y48997561D02*
X657143Y49045180D01*
X657143Y49045180D02*
X895238Y49045180D01*
X895238Y49045180D02*
X990476Y48997561D01*
X990476Y48997561D02*
X1038095Y48949942D01*
X1038095Y48949942D02*
X1085714Y48854704D01*
X1085714Y48854704D02*
X1085714Y48759466D01*
X1085714Y48759466D02*
X1038095Y48616609D01*
X1038095Y48616609D02*
X466667Y48045180D01*
X466667Y48045180D02*
X1085714Y48045180D01*
X8833333Y-7054819D02*
X8500000Y-6578628D01*
X8261905Y-7054819D02*
X8261905Y-6054819D01*
X8261905Y-6054819D02*
X8642857Y-6054819D01*
X8642857Y-6054819D02*
X8738095Y-6102438D01*
X8738095Y-6102438D02*
X8785714Y-6150057D01*
X8785714Y-6150057D02*
X8833333Y-6245295D01*
X8833333Y-6245295D02*
X8833333Y-6388152D01*
X8833333Y-6388152D02*
X8785714Y-6483390D01*
X8785714Y-6483390D02*
X8738095Y-6531009D01*
X8738095Y-6531009D02*
X8642857Y-6578628D01*
X8642857Y-6578628D02*
X8261905Y-6578628D01*
X9166667Y-6054819D02*
X9833333Y-6054819D01*
X9833333Y-6054819D02*
X9404762Y-7054819D01*
X-11588094Y45557680D02*
X-11588094Y46557680D01*
X-11588094Y46557680D02*
X-11349999Y46557680D01*
X-11349999Y46557680D02*
X-11207142Y46510061D01*
X-11207142Y46510061D02*
X-11111904Y46414823D01*
X-11111904Y46414823D02*
X-11064285Y46319585D01*
X-11064285Y46319585D02*
X-11016666Y46129109D01*
X-11016666Y46129109D02*
X-11016666Y45986252D01*
X-11016666Y45986252D02*
X-11064285Y45795776D01*
X-11064285Y45795776D02*
X-11111904Y45700538D01*
X-11111904Y45700538D02*
X-11207142Y45605300D01*
X-11207142Y45605300D02*
X-11349999Y45557680D01*
X-11349999Y45557680D02*
X-11588094Y45557680D01*
X-10254761Y46081490D02*
X-10111904Y46033871D01*
X-10111904Y46033871D02*
X-10064285Y45986252D01*
X-10064285Y45986252D02*
X-10016666Y45891014D01*
X-10016666Y45891014D02*
X-10016666Y45748157D01*
X-10016666Y45748157D02*
X-10064285Y45652919D01*
X-10064285Y45652919D02*
X-10111904Y45605300D01*
X-10111904Y45605300D02*
X-10207142Y45557680D01*
X-10207142Y45557680D02*
X-10588094Y45557680D01*
X-10588094Y45557680D02*
X-10588094Y46557680D01*
X-10588094Y46557680D02*
X-10254761Y46557680D01*
X-10254761Y46557680D02*
X-10159523Y46510061D01*
X-10159523Y46510061D02*
X-10111904Y46462442D01*
X-10111904Y46462442D02*
X-10064285Y46367204D01*
X-10064285Y46367204D02*
X-10064285Y46271966D01*
X-10064285Y46271966D02*
X-10111904Y46176728D01*
X-10111904Y46176728D02*
X-10159523Y46129109D01*
X-10159523Y46129109D02*
X-10254761Y46081490D01*
X-10254761Y46081490D02*
X-10588094Y46081490D01*
X-9635713Y46462442D02*
X-9588094Y46510061D01*
X-9588094Y46510061D02*
X-9492856Y46557680D01*
X-9492856Y46557680D02*
X-9254761Y46557680D01*
X-9254761Y46557680D02*
X-9159523Y46510061D01*
X-9159523Y46510061D02*
X-9111904Y46462442D01*
X-9111904Y46462442D02*
X-9064285Y46367204D01*
X-9064285Y46367204D02*
X-9064285Y46271966D01*
X-9064285Y46271966D02*
X-9111904Y46129109D01*
X-9111904Y46129109D02*
X-9683332Y45557680D01*
X-9683332Y45557680D02*
X-9064285Y45557680D01*
X-1942857Y-18159580D02*
X-1990476Y-18207200D01*
X-1990476Y-18207200D02*
X-2133333Y-18254819D01*
X-2133333Y-18254819D02*
X-2228571Y-18254819D01*
X-2228571Y-18254819D02*
X-2371428Y-18207200D01*
X-2371428Y-18207200D02*
X-2466666Y-18111961D01*
X-2466666Y-18111961D02*
X-2514285Y-18016723D01*
X-2514285Y-18016723D02*
X-2561904Y-17826247D01*
X-2561904Y-17826247D02*
X-2561904Y-17683390D01*
X-2561904Y-17683390D02*
X-2514285Y-17492914D01*
X-2514285Y-17492914D02*
X-2466666Y-17397676D01*
X-2466666Y-17397676D02*
X-2371428Y-17302438D01*
X-2371428Y-17302438D02*
X-2228571Y-17254819D01*
X-2228571Y-17254819D02*
X-2133333Y-17254819D01*
X-2133333Y-17254819D02*
X-1990476Y-17302438D01*
X-1990476Y-17302438D02*
X-1942857Y-17350057D01*
X-990476Y-18254819D02*
X-1561904Y-18254819D01*
X-1276190Y-18254819D02*
X-1276190Y-17254819D01*
X-1276190Y-17254819D02*
X-1371428Y-17397676D01*
X-1371428Y-17397676D02*
X-1466666Y-17492914D01*
X-1466666Y-17492914D02*
X-1561904Y-17540533D01*
X-371428Y-17254819D02*
X-276190Y-17254819D01*
X-276190Y-17254819D02*
X-180952Y-17302438D01*
X-180952Y-17302438D02*
X-133333Y-17350057D01*
X-133333Y-17350057D02*
X-85714Y-17445295D01*
X-85714Y-17445295D02*
X-38095Y-17635771D01*
X-38095Y-17635771D02*
X-38095Y-17873866D01*
X-38095Y-17873866D02*
X-85714Y-18064342D01*
X-85714Y-18064342D02*
X-133333Y-18159580D01*
X-133333Y-18159580D02*
X-180952Y-18207200D01*
X-180952Y-18207200D02*
X-276190Y-18254819D01*
X-276190Y-18254819D02*
X-371428Y-18254819D01*
X-371428Y-18254819D02*
X-466666Y-18207200D01*
X-466666Y-18207200D02*
X-514285Y-18159580D01*
X-514285Y-18159580D02*
X-561904Y-18064342D01*
X-561904Y-18064342D02*
X-609523Y-17873866D01*
X-609523Y-17873866D02*
X-609523Y-17635771D01*
X-609523Y-17635771D02*
X-561904Y-17445295D01*
X-561904Y-17445295D02*
X-514285Y-17350057D01*
X-514285Y-17350057D02*
X-466666Y-17302438D01*
X-466666Y-17302438D02*
X-371428Y-17254819D01*
X-17283333Y5445180D02*
X-17283333Y4730895D01*
X-17283333Y4730895D02*
X-17330952Y4588038D01*
X-17330952Y4588038D02*
X-17426190Y4492800D01*
X-17426190Y4492800D02*
X-17569047Y4445180D01*
X-17569047Y4445180D02*
X-17664285Y4445180D01*
X-16854761Y5349942D02*
X-16807142Y5397561D01*
X-16807142Y5397561D02*
X-16711904Y5445180D01*
X-16711904Y5445180D02*
X-16473809Y5445180D01*
X-16473809Y5445180D02*
X-16378571Y5397561D01*
X-16378571Y5397561D02*
X-16330952Y5349942D01*
X-16330952Y5349942D02*
X-16283333Y5254704D01*
X-16283333Y5254704D02*
X-16283333Y5159466D01*
X-16283333Y5159466D02*
X-16330952Y5016609D01*
X-16330952Y5016609D02*
X-16902380Y4445180D01*
X-16902380Y4445180D02*
X-16283333Y4445180D01*
X-1690180Y-20767857D02*
X-2166371Y-21101190D01*
X-1690180Y-21339285D02*
X-2690180Y-21339285D01*
X-2690180Y-21339285D02*
X-2690180Y-20958333D01*
X-2690180Y-20958333D02*
X-2642561Y-20863095D01*
X-2642561Y-20863095D02*
X-2594942Y-20815476D01*
X-2594942Y-20815476D02*
X-2499704Y-20767857D01*
X-2499704Y-20767857D02*
X-2356847Y-20767857D01*
X-2356847Y-20767857D02*
X-2261609Y-20815476D01*
X-2261609Y-20815476D02*
X-2213990Y-20863095D01*
X-2213990Y-20863095D02*
X-2166371Y-20958333D01*
X-2166371Y-20958333D02*
X-2166371Y-21339285D01*
X-1690180Y-19815476D02*
X-1690180Y-20386904D01*
X-1690180Y-20101190D02*
X-2690180Y-20101190D01*
X-2690180Y-20101190D02*
X-2547323Y-20196428D01*
X-2547323Y-20196428D02*
X-2452085Y-20291666D01*
X-2452085Y-20291666D02*
X-2404466Y-20386904D01*
X-2690180Y-19482142D02*
X-2690180Y-18863095D01*
X-2690180Y-18863095D02*
X-2309228Y-19196428D01*
X-2309228Y-19196428D02*
X-2309228Y-19053571D01*
X-2309228Y-19053571D02*
X-2261609Y-18958333D01*
X-2261609Y-18958333D02*
X-2213990Y-18910714D01*
X-2213990Y-18910714D02*
X-2118752Y-18863095D01*
X-2118752Y-18863095D02*
X-1880657Y-18863095D01*
X-1880657Y-18863095D02*
X-1785419Y-18910714D01*
X-1785419Y-18910714D02*
X-1737800Y-18958333D01*
X-1737800Y-18958333D02*
X-1690180Y-19053571D01*
X-1690180Y-19053571D02*
X-1690180Y-19339285D01*
X-1690180Y-19339285D02*
X-1737800Y-19434523D01*
X-1737800Y-19434523D02*
X-1785419Y-19482142D01*
X-17666666Y13040419D02*
X-17714285Y12992800D01*
X-17714285Y12992800D02*
X-17857142Y12945180D01*
X-17857142Y12945180D02*
X-17952380Y12945180D01*
X-17952380Y12945180D02*
X-18095237Y12992800D01*
X-18095237Y12992800D02*
X-18190475Y13088038D01*
X-18190475Y13088038D02*
X-18238094Y13183276D01*
X-18238094Y13183276D02*
X-18285713Y13373752D01*
X-18285713Y13373752D02*
X-18285713Y13516609D01*
X-18285713Y13516609D02*
X-18238094Y13707085D01*
X-18238094Y13707085D02*
X-18190475Y13802323D01*
X-18190475Y13802323D02*
X-18095237Y13897561D01*
X-18095237Y13897561D02*
X-17952380Y13945180D01*
X-17952380Y13945180D02*
X-17857142Y13945180D01*
X-17857142Y13945180D02*
X-17714285Y13897561D01*
X-17714285Y13897561D02*
X-17666666Y13849942D01*
X-17333332Y13945180D02*
X-16714285Y13945180D01*
X-16714285Y13945180D02*
X-17047618Y13564228D01*
X-17047618Y13564228D02*
X-16904761Y13564228D01*
X-16904761Y13564228D02*
X-16809523Y13516609D01*
X-16809523Y13516609D02*
X-16761904Y13468990D01*
X-16761904Y13468990D02*
X-16714285Y13373752D01*
X-16714285Y13373752D02*
X-16714285Y13135657D01*
X-16714285Y13135657D02*
X-16761904Y13040419D01*
X-16761904Y13040419D02*
X-16809523Y12992800D01*
X-16809523Y12992800D02*
X-16904761Y12945180D01*
X-16904761Y12945180D02*
X-17190475Y12945180D01*
X-17190475Y12945180D02*
X-17285713Y12992800D01*
X-17285713Y12992800D02*
X-17333332Y13040419D01*
X354819Y-12761904D02*
X1164342Y-12761904D01*
X1164342Y-12761904D02*
X1259580Y-12714285D01*
X1259580Y-12714285D02*
X1307200Y-12666666D01*
X1307200Y-12666666D02*
X1354819Y-12571428D01*
X1354819Y-12571428D02*
X1354819Y-12380952D01*
X1354819Y-12380952D02*
X1307200Y-12285714D01*
X1307200Y-12285714D02*
X1259580Y-12238095D01*
X1259580Y-12238095D02*
X1164342Y-12190476D01*
X1164342Y-12190476D02*
X354819Y-12190476D01*
X354819Y-11809523D02*
X354819Y-11190476D01*
X354819Y-11190476D02*
X735771Y-11523809D01*
X735771Y-11523809D02*
X735771Y-11380952D01*
X735771Y-11380952D02*
X783390Y-11285714D01*
X783390Y-11285714D02*
X831009Y-11238095D01*
X831009Y-11238095D02*
X926247Y-11190476D01*
X926247Y-11190476D02*
X1164342Y-11190476D01*
X1164342Y-11190476D02*
X1259580Y-11238095D01*
X1259580Y-11238095D02*
X1307200Y-11285714D01*
X1307200Y-11285714D02*
X1354819Y-11380952D01*
X1354819Y-11380952D02*
X1354819Y-11666666D01*
X1354819Y-11666666D02*
X1307200Y-11761904D01*
X1307200Y-11761904D02*
X1259580Y-11809523D01*
X-16104166Y-15909580D02*
X-16151785Y-15957200D01*
X-16151785Y-15957200D02*
X-16294642Y-16004819D01*
X-16294642Y-16004819D02*
X-16389880Y-16004819D01*
X-16389880Y-16004819D02*
X-16532737Y-15957200D01*
X-16532737Y-15957200D02*
X-16627975Y-15861961D01*
X-16627975Y-15861961D02*
X-16675594Y-15766723D01*
X-16675594Y-15766723D02*
X-16723213Y-15576247D01*
X-16723213Y-15576247D02*
X-16723213Y-15433390D01*
X-16723213Y-15433390D02*
X-16675594Y-15242914D01*
X-16675594Y-15242914D02*
X-16627975Y-15147676D01*
X-16627975Y-15147676D02*
X-16532737Y-15052438D01*
X-16532737Y-15052438D02*
X-16389880Y-15004819D01*
X-16389880Y-15004819D02*
X-16294642Y-15004819D01*
X-16294642Y-15004819D02*
X-16151785Y-15052438D01*
X-16151785Y-15052438D02*
X-16104166Y-15100057D01*
X-15770832Y-15004819D02*
X-15104166Y-15004819D01*
X-15104166Y-15004819D02*
X-15532737Y-16004819D01*
X-12045180Y-4633333D02*
X-11330895Y-4633333D01*
X-11330895Y-4633333D02*
X-11188038Y-4680952D01*
X-11188038Y-4680952D02*
X-11092800Y-4776190D01*
X-11092800Y-4776190D02*
X-11045180Y-4919047D01*
X-11045180Y-4919047D02*
X-11045180Y-5014285D01*
X-11045180Y-4157142D02*
X-12045180Y-4157142D01*
X-12045180Y-4157142D02*
X-12045180Y-3776190D01*
X-12045180Y-3776190D02*
X-11997561Y-3680952D01*
X-11997561Y-3680952D02*
X-11949942Y-3633333D01*
X-11949942Y-3633333D02*
X-11854704Y-3585714D01*
X-11854704Y-3585714D02*
X-11711847Y-3585714D01*
X-11711847Y-3585714D02*
X-11616609Y-3633333D01*
X-11616609Y-3633333D02*
X-11568990Y-3680952D01*
X-11568990Y-3680952D02*
X-11521371Y-3776190D01*
X-11521371Y-3776190D02*
X-11521371Y-4157142D01*
X-11949942Y-3204761D02*
X-11997561Y-3157142D01*
X-11997561Y-3157142D02*
X-12045180Y-3061904D01*
X-12045180Y-3061904D02*
X-12045180Y-2823809D01*
X-12045180Y-2823809D02*
X-11997561Y-2728571D01*
X-11997561Y-2728571D02*
X-11949942Y-2680952D01*
X-11949942Y-2680952D02*
X-11854704Y-2633333D01*
X-11854704Y-2633333D02*
X-11759466Y-2633333D01*
X-11759466Y-2633333D02*
X-11616609Y-2680952D01*
X-11616609Y-2680952D02*
X-11045180Y-3252380D01*
X-11045180Y-3252380D02*
X-11045180Y-2633333D01*
X2133333Y-19259580D02*
X2085714Y-19307200D01*
X2085714Y-19307200D02*
X1942857Y-19354819D01*
X1942857Y-19354819D02*
X1847619Y-19354819D01*
X1847619Y-19354819D02*
X1704762Y-19307200D01*
X1704762Y-19307200D02*
X1609524Y-19211961D01*
X1609524Y-19211961D02*
X1561905Y-19116723D01*
X1561905Y-19116723D02*
X1514286Y-18926247D01*
X1514286Y-18926247D02*
X1514286Y-18783390D01*
X1514286Y-18783390D02*
X1561905Y-18592914D01*
X1561905Y-18592914D02*
X1609524Y-18497676D01*
X1609524Y-18497676D02*
X1704762Y-18402438D01*
X1704762Y-18402438D02*
X1847619Y-18354819D01*
X1847619Y-18354819D02*
X1942857Y-18354819D01*
X1942857Y-18354819D02*
X2085714Y-18402438D01*
X2085714Y-18402438D02*
X2133333Y-18450057D01*
X2704762Y-18783390D02*
X2609524Y-18735771D01*
X2609524Y-18735771D02*
X2561905Y-18688152D01*
X2561905Y-18688152D02*
X2514286Y-18592914D01*
X2514286Y-18592914D02*
X2514286Y-18545295D01*
X2514286Y-18545295D02*
X2561905Y-18450057D01*
X2561905Y-18450057D02*
X2609524Y-18402438D01*
X2609524Y-18402438D02*
X2704762Y-18354819D01*
X2704762Y-18354819D02*
X2895238Y-18354819D01*
X2895238Y-18354819D02*
X2990476Y-18402438D01*
X2990476Y-18402438D02*
X3038095Y-18450057D01*
X3038095Y-18450057D02*
X3085714Y-18545295D01*
X3085714Y-18545295D02*
X3085714Y-18592914D01*
X3085714Y-18592914D02*
X3038095Y-18688152D01*
X3038095Y-18688152D02*
X2990476Y-18735771D01*
X2990476Y-18735771D02*
X2895238Y-18783390D01*
X2895238Y-18783390D02*
X2704762Y-18783390D01*
X2704762Y-18783390D02*
X2609524Y-18831009D01*
X2609524Y-18831009D02*
X2561905Y-18878628D01*
X2561905Y-18878628D02*
X2514286Y-18973866D01*
X2514286Y-18973866D02*
X2514286Y-19164342D01*
X2514286Y-19164342D02*
X2561905Y-19259580D01*
X2561905Y-19259580D02*
X2609524Y-19307200D01*
X2609524Y-19307200D02*
X2704762Y-19354819D01*
X2704762Y-19354819D02*
X2895238Y-19354819D01*
X2895238Y-19354819D02*
X2990476Y-19307200D01*
X2990476Y-19307200D02*
X3038095Y-19259580D01*
X3038095Y-19259580D02*
X3085714Y-19164342D01*
X3085714Y-19164342D02*
X3085714Y-18973866D01*
X3085714Y-18973866D02*
X3038095Y-18878628D01*
X3038095Y-18878628D02*
X2990476Y-18831009D01*
X2990476Y-18831009D02*
X2895238Y-18783390D01*
X17861905Y-10554819D02*
X17861905Y-9554819D01*
X17861905Y-9554819D02*
X18100000Y-9554819D01*
X18100000Y-9554819D02*
X18242857Y-9602438D01*
X18242857Y-9602438D02*
X18338095Y-9697676D01*
X18338095Y-9697676D02*
X18385714Y-9792914D01*
X18385714Y-9792914D02*
X18433333Y-9983390D01*
X18433333Y-9983390D02*
X18433333Y-10126247D01*
X18433333Y-10126247D02*
X18385714Y-10316723D01*
X18385714Y-10316723D02*
X18338095Y-10411961D01*
X18338095Y-10411961D02*
X18242857Y-10507200D01*
X18242857Y-10507200D02*
X18100000Y-10554819D01*
X18100000Y-10554819D02*
X17861905Y-10554819D01*
X19385714Y-10554819D02*
X18814286Y-10554819D01*
X19100000Y-10554819D02*
X19100000Y-9554819D01*
X19100000Y-9554819D02*
X19004762Y-9697676D01*
X19004762Y-9697676D02*
X18909524Y-9792914D01*
X18909524Y-9792914D02*
X18814286Y-9840533D01*
X21267000Y-9554819D02*
X21267000Y-9792914D01*
X21028905Y-9697676D02*
X21267000Y-9792914D01*
X21267000Y-9792914D02*
X21505095Y-9697676D01*
X21124143Y-9983390D02*
X21267000Y-9792914D01*
X21267000Y-9792914D02*
X21409857Y-9983390D01*
X21266999Y-10645180D02*
X21266999Y-10407085D01*
X21505094Y-10502323D02*
X21266999Y-10407085D01*
X21266999Y-10407085D02*
X21028904Y-10502323D01*
X21409856Y-10216609D02*
X21266999Y-10407085D01*
X21266999Y-10407085D02*
X21124142Y-10216609D01*
X-14915221Y26378531D02*
X-15575135Y26105186D01*
X-15575135Y26105186D02*
X-15725341Y26094511D01*
X-15725341Y26094511D02*
X-15849775Y26146053D01*
X-15849775Y26146053D02*
X-15948439Y26259813D01*
X-15948439Y26259813D02*
X-15984885Y26347802D01*
X-15656870Y25555905D02*
X-14732991Y25938588D01*
X-14732991Y25938588D02*
X-14587206Y25586634D01*
X-14587206Y25586634D02*
X-14594755Y25480422D01*
X-14594755Y25480422D02*
X-14620526Y25418205D01*
X-14620526Y25418205D02*
X-14690291Y25337765D01*
X-14690291Y25337765D02*
X-14822274Y25283096D01*
X-14822274Y25283096D02*
X-14928486Y25290644D01*
X-14928486Y25290644D02*
X-14990703Y25316415D01*
X-14990703Y25316415D02*
X-15071143Y25386181D01*
X-15071143Y25386181D02*
X-15216927Y25738135D01*
X-14386753Y25102697D02*
X-14131631Y24486777D01*
X-14131631Y24486777D02*
X-15219518Y24500042D01*
X6633333Y-4254819D02*
X6300000Y-3778628D01*
X6061905Y-4254819D02*
X6061905Y-3254819D01*
X6061905Y-3254819D02*
X6442857Y-3254819D01*
X6442857Y-3254819D02*
X6538095Y-3302438D01*
X6538095Y-3302438D02*
X6585714Y-3350057D01*
X6585714Y-3350057D02*
X6633333Y-3445295D01*
X6633333Y-3445295D02*
X6633333Y-3588152D01*
X6633333Y-3588152D02*
X6585714Y-3683390D01*
X6585714Y-3683390D02*
X6538095Y-3731009D01*
X6538095Y-3731009D02*
X6442857Y-3778628D01*
X6442857Y-3778628D02*
X6061905Y-3778628D01*
X7490476Y-3254819D02*
X7300000Y-3254819D01*
X7300000Y-3254819D02*
X7204762Y-3302438D01*
X7204762Y-3302438D02*
X7157143Y-3350057D01*
X7157143Y-3350057D02*
X7061905Y-3492914D01*
X7061905Y-3492914D02*
X7014286Y-3683390D01*
X7014286Y-3683390D02*
X7014286Y-4064342D01*
X7014286Y-4064342D02*
X7061905Y-4159580D01*
X7061905Y-4159580D02*
X7109524Y-4207200D01*
X7109524Y-4207200D02*
X7204762Y-4254819D01*
X7204762Y-4254819D02*
X7395238Y-4254819D01*
X7395238Y-4254819D02*
X7490476Y-4207200D01*
X7490476Y-4207200D02*
X7538095Y-4159580D01*
X7538095Y-4159580D02*
X7585714Y-4064342D01*
X7585714Y-4064342D02*
X7585714Y-3826247D01*
X7585714Y-3826247D02*
X7538095Y-3731009D01*
X7538095Y-3731009D02*
X7490476Y-3683390D01*
X7490476Y-3683390D02*
X7395238Y-3635771D01*
X7395238Y-3635771D02*
X7204762Y-3635771D01*
X7204762Y-3635771D02*
X7109524Y-3683390D01*
X7109524Y-3683390D02*
X7061905Y-3731009D01*
X7061905Y-3731009D02*
X7014286Y-3826247D01*
X-4966666Y48045180D02*
X-5299999Y48521371D01*
X-5538094Y48045180D02*
X-5538094Y49045180D01*
X-5538094Y49045180D02*
X-5157142Y49045180D01*
X-5157142Y49045180D02*
X-5061904Y48997561D01*
X-5061904Y48997561D02*
X-5014285Y48949942D01*
X-5014285Y48949942D02*
X-4966666Y48854704D01*
X-4966666Y48854704D02*
X-4966666Y48711847D01*
X-4966666Y48711847D02*
X-5014285Y48616609D01*
X-5014285Y48616609D02*
X-5061904Y48568990D01*
X-5061904Y48568990D02*
X-5157142Y48521371D01*
X-5157142Y48521371D02*
X-5538094Y48521371D01*
X-4585713Y48949942D02*
X-4538094Y48997561D01*
X-4538094Y48997561D02*
X-4442856Y49045180D01*
X-4442856Y49045180D02*
X-4204761Y49045180D01*
X-4204761Y49045180D02*
X-4109523Y48997561D01*
X-4109523Y48997561D02*
X-4061904Y48949942D01*
X-4061904Y48949942D02*
X-4014285Y48854704D01*
X-4014285Y48854704D02*
X-4014285Y48759466D01*
X-4014285Y48759466D02*
X-4061904Y48616609D01*
X-4061904Y48616609D02*
X-4633332Y48045180D01*
X-4633332Y48045180D02*
X-4014285Y48045180D01*
X8133333Y-16259580D02*
X8085714Y-16307200D01*
X8085714Y-16307200D02*
X7942857Y-16354819D01*
X7942857Y-16354819D02*
X7847619Y-16354819D01*
X7847619Y-16354819D02*
X7704762Y-16307200D01*
X7704762Y-16307200D02*
X7609524Y-16211961D01*
X7609524Y-16211961D02*
X7561905Y-16116723D01*
X7561905Y-16116723D02*
X7514286Y-15926247D01*
X7514286Y-15926247D02*
X7514286Y-15783390D01*
X7514286Y-15783390D02*
X7561905Y-15592914D01*
X7561905Y-15592914D02*
X7609524Y-15497676D01*
X7609524Y-15497676D02*
X7704762Y-15402438D01*
X7704762Y-15402438D02*
X7847619Y-15354819D01*
X7847619Y-15354819D02*
X7942857Y-15354819D01*
X7942857Y-15354819D02*
X8085714Y-15402438D01*
X8085714Y-15402438D02*
X8133333Y-15450057D01*
X9038095Y-15354819D02*
X8561905Y-15354819D01*
X8561905Y-15354819D02*
X8514286Y-15831009D01*
X8514286Y-15831009D02*
X8561905Y-15783390D01*
X8561905Y-15783390D02*
X8657143Y-15735771D01*
X8657143Y-15735771D02*
X8895238Y-15735771D01*
X8895238Y-15735771D02*
X8990476Y-15783390D01*
X8990476Y-15783390D02*
X9038095Y-15831009D01*
X9038095Y-15831009D02*
X9085714Y-15926247D01*
X9085714Y-15926247D02*
X9085714Y-16164342D01*
X9085714Y-16164342D02*
X9038095Y-16259580D01*
X9038095Y-16259580D02*
X8990476Y-16307200D01*
X8990476Y-16307200D02*
X8895238Y-16354819D01*
X8895238Y-16354819D02*
X8657143Y-16354819D01*
X8657143Y-16354819D02*
X8561905Y-16307200D01*
X8561905Y-16307200D02*
X8514286Y-16259580D01*
X-3842857Y-6454819D02*
X-4176190Y-5978628D01*
X-4414285Y-6454819D02*
X-4414285Y-5454819D01*
X-4414285Y-5454819D02*
X-4033333Y-5454819D01*
X-4033333Y-5454819D02*
X-3938095Y-5502438D01*
X-3938095Y-5502438D02*
X-3890476Y-5550057D01*
X-3890476Y-5550057D02*
X-3842857Y-5645295D01*
X-3842857Y-5645295D02*
X-3842857Y-5788152D01*
X-3842857Y-5788152D02*
X-3890476Y-5883390D01*
X-3890476Y-5883390D02*
X-3938095Y-5931009D01*
X-3938095Y-5931009D02*
X-4033333Y-5978628D01*
X-4033333Y-5978628D02*
X-4414285Y-5978628D01*
X-2890476Y-6454819D02*
X-3461904Y-6454819D01*
X-3176190Y-6454819D02*
X-3176190Y-5454819D01*
X-3176190Y-5454819D02*
X-3271428Y-5597676D01*
X-3271428Y-5597676D02*
X-3366666Y-5692914D01*
X-3366666Y-5692914D02*
X-3461904Y-5740533D01*
X-1938095Y-6454819D02*
X-2509523Y-6454819D01*
X-2223809Y-6454819D02*
X-2223809Y-5454819D01*
X-2223809Y-5454819D02*
X-2319047Y-5597676D01*
X-2319047Y-5597676D02*
X-2414285Y-5692914D01*
X-2414285Y-5692914D02*
X-2509523Y-5740533D01*
X15033333Y12740419D02*
X14985714Y12692800D01*
X14985714Y12692800D02*
X14842857Y12645180D01*
X14842857Y12645180D02*
X14747619Y12645180D01*
X14747619Y12645180D02*
X14604762Y12692800D01*
X14604762Y12692800D02*
X14509524Y12788038D01*
X14509524Y12788038D02*
X14461905Y12883276D01*
X14461905Y12883276D02*
X14414286Y13073752D01*
X14414286Y13073752D02*
X14414286Y13216609D01*
X14414286Y13216609D02*
X14461905Y13407085D01*
X14461905Y13407085D02*
X14509524Y13502323D01*
X14509524Y13502323D02*
X14604762Y13597561D01*
X14604762Y13597561D02*
X14747619Y13645180D01*
X14747619Y13645180D02*
X14842857Y13645180D01*
X14842857Y13645180D02*
X14985714Y13597561D01*
X14985714Y13597561D02*
X15033333Y13549942D01*
X15985714Y12645180D02*
X15414286Y12645180D01*
X15700000Y12645180D02*
X15700000Y13645180D01*
X15700000Y13645180D02*
X15604762Y13502323D01*
X15604762Y13502323D02*
X15509524Y13407085D01*
X15509524Y13407085D02*
X15414286Y13359466D01*
X-14545180Y-33333D02*
X-13830895Y-33333D01*
X-13830895Y-33333D02*
X-13688038Y-80952D01*
X-13688038Y-80952D02*
X-13592800Y-176190D01*
X-13592800Y-176190D02*
X-13545180Y-319047D01*
X-13545180Y-319047D02*
X-13545180Y-414285D01*
X-13545180Y442857D02*
X-14545180Y442857D01*
X-14545180Y442857D02*
X-14545180Y823809D01*
X-14545180Y823809D02*
X-14497561Y919047D01*
X-14497561Y919047D02*
X-14449942Y966666D01*
X-14449942Y966666D02*
X-14354704Y1014285D01*
X-14354704Y1014285D02*
X-14211847Y1014285D01*
X-14211847Y1014285D02*
X-14116609Y966666D01*
X-14116609Y966666D02*
X-14068990Y919047D01*
X-14068990Y919047D02*
X-14021371Y823809D01*
X-14021371Y823809D02*
X-14021371Y442857D01*
X-14211847Y1871428D02*
X-13545180Y1871428D01*
X-14592800Y1633333D02*
X-13878514Y1395238D01*
X-13878514Y1395238D02*
X-13878514Y2014285D01*
X-11342857Y1240419D02*
X-11390476Y1192800D01*
X-11390476Y1192800D02*
X-11533333Y1145180D01*
X-11533333Y1145180D02*
X-11628571Y1145180D01*
X-11628571Y1145180D02*
X-11771428Y1192800D01*
X-11771428Y1192800D02*
X-11866666Y1288038D01*
X-11866666Y1288038D02*
X-11914285Y1383276D01*
X-11914285Y1383276D02*
X-11961904Y1573752D01*
X-11961904Y1573752D02*
X-11961904Y1716609D01*
X-11961904Y1716609D02*
X-11914285Y1907085D01*
X-11914285Y1907085D02*
X-11866666Y2002323D01*
X-11866666Y2002323D02*
X-11771428Y2097561D01*
X-11771428Y2097561D02*
X-11628571Y2145180D01*
X-11628571Y2145180D02*
X-11533333Y2145180D01*
X-11533333Y2145180D02*
X-11390476Y2097561D01*
X-11390476Y2097561D02*
X-11342857Y2049942D01*
X-10390476Y1145180D02*
X-10961904Y1145180D01*
X-10676190Y1145180D02*
X-10676190Y2145180D01*
X-10676190Y2145180D02*
X-10771428Y2002323D01*
X-10771428Y2002323D02*
X-10866666Y1907085D01*
X-10866666Y1907085D02*
X-10961904Y1859466D01*
X-9485714Y2145180D02*
X-9961904Y2145180D01*
X-9961904Y2145180D02*
X-10009523Y1668990D01*
X-10009523Y1668990D02*
X-9961904Y1716609D01*
X-9961904Y1716609D02*
X-9866666Y1764228D01*
X-9866666Y1764228D02*
X-9628571Y1764228D01*
X-9628571Y1764228D02*
X-9533333Y1716609D01*
X-9533333Y1716609D02*
X-9485714Y1668990D01*
X-9485714Y1668990D02*
X-9438095Y1573752D01*
X-9438095Y1573752D02*
X-9438095Y1335657D01*
X-9438095Y1335657D02*
X-9485714Y1240419D01*
X-9485714Y1240419D02*
X-9533333Y1192800D01*
X-9533333Y1192800D02*
X-9628571Y1145180D01*
X-9628571Y1145180D02*
X-9866666Y1145180D01*
X-9866666Y1145180D02*
X-9961904Y1192800D01*
X-9961904Y1192800D02*
X-10009523Y1240419D01*
X1629819Y-6400594D02*
X629819Y-6400594D01*
X629819Y-6400594D02*
X629819Y-6162499D01*
X629819Y-6162499D02*
X677438Y-6019642D01*
X677438Y-6019642D02*
X772676Y-5924404D01*
X772676Y-5924404D02*
X867914Y-5876785D01*
X867914Y-5876785D02*
X1058390Y-5829166D01*
X1058390Y-5829166D02*
X1201247Y-5829166D01*
X1201247Y-5829166D02*
X1391723Y-5876785D01*
X1391723Y-5876785D02*
X1486961Y-5924404D01*
X1486961Y-5924404D02*
X1582200Y-6019642D01*
X1582200Y-6019642D02*
X1629819Y-6162499D01*
X1629819Y-6162499D02*
X1629819Y-6400594D01*
X725057Y-5448213D02*
X677438Y-5400594D01*
X677438Y-5400594D02*
X629819Y-5305356D01*
X629819Y-5305356D02*
X629819Y-5067261D01*
X629819Y-5067261D02*
X677438Y-4972023D01*
X677438Y-4972023D02*
X725057Y-4924404D01*
X725057Y-4924404D02*
X820295Y-4876785D01*
X820295Y-4876785D02*
X915533Y-4876785D01*
X915533Y-4876785D02*
X1058390Y-4924404D01*
X1058390Y-4924404D02*
X1629819Y-5495832D01*
X1629819Y-5495832D02*
X1629819Y-4876785D01*
X10633143Y26898213D02*
X11180318Y26439079D01*
X11180318Y26439079D02*
X11259144Y26310773D01*
X11259144Y26310773D02*
X11270883Y26176599D01*
X11270883Y26176599D02*
X11215534Y26036555D01*
X11215534Y26036555D02*
X11154316Y25963599D01*
X11705277Y26620208D02*
X10939233Y27262996D01*
X10939233Y27262996D02*
X11184104Y27554822D01*
X11184104Y27554822D02*
X11281800Y27597170D01*
X11281800Y27597170D02*
X11348888Y27603039D01*
X11348888Y27603039D02*
X11452453Y27578300D01*
X11452453Y27578300D02*
X11561888Y27486473D01*
X11561888Y27486473D02*
X11604236Y27388777D01*
X11604236Y27388777D02*
X11610105Y27321690D01*
X11610105Y27321690D02*
X11585366Y27218124D01*
X11585366Y27218124D02*
X11340494Y26926298D01*
X11857501Y28357345D02*
X11735065Y28211432D01*
X11735065Y28211432D02*
X11710325Y28107866D01*
X11710325Y28107866D02*
X11716195Y28040779D01*
X11716195Y28040779D02*
X11764412Y27875996D01*
X11764412Y27875996D02*
X11879716Y27717082D01*
X11879716Y27717082D02*
X12171543Y27472210D01*
X12171543Y27472210D02*
X12275108Y27447471D01*
X12275108Y27447471D02*
X12342195Y27453340D01*
X12342195Y27453340D02*
X12439892Y27495688D01*
X12439892Y27495688D02*
X12562327Y27641601D01*
X12562327Y27641601D02*
X12587067Y27745166D01*
X12587067Y27745166D02*
X12581197Y27812254D01*
X12581197Y27812254D02*
X12538850Y27909950D01*
X12538850Y27909950D02*
X12356458Y28062994D01*
X12356458Y28062994D02*
X12252893Y28087734D01*
X12252893Y28087734D02*
X12185805Y28081865D01*
X12185805Y28081865D02*
X12088109Y28039517D01*
X12088109Y28039517D02*
X11965674Y27893604D01*
X11965674Y27893604D02*
X11940934Y27790038D01*
X11940934Y27790038D02*
X11946803Y27722951D01*
X11946803Y27722951D02*
X11989151Y27625255D01*
X-9061904Y-3854819D02*
X-9061904Y-4664342D01*
X-9061904Y-4664342D02*
X-9014285Y-4759580D01*
X-9014285Y-4759580D02*
X-8966666Y-4807200D01*
X-8966666Y-4807200D02*
X-8871428Y-4854819D01*
X-8871428Y-4854819D02*
X-8680952Y-4854819D01*
X-8680952Y-4854819D02*
X-8585714Y-4807200D01*
X-8585714Y-4807200D02*
X-8538095Y-4759580D01*
X-8538095Y-4759580D02*
X-8490476Y-4664342D01*
X-8490476Y-4664342D02*
X-8490476Y-3854819D01*
X-7538095Y-3854819D02*
X-8014285Y-3854819D01*
X-8014285Y-3854819D02*
X-8061904Y-4331009D01*
X-8061904Y-4331009D02*
X-8014285Y-4283390D01*
X-8014285Y-4283390D02*
X-7919047Y-4235771D01*
X-7919047Y-4235771D02*
X-7680952Y-4235771D01*
X-7680952Y-4235771D02*
X-7585714Y-4283390D01*
X-7585714Y-4283390D02*
X-7538095Y-4331009D01*
X-7538095Y-4331009D02*
X-7490476Y-4426247D01*
X-7490476Y-4426247D02*
X-7490476Y-4664342D01*
X-7490476Y-4664342D02*
X-7538095Y-4759580D01*
X-7538095Y-4759580D02*
X-7585714Y-4807200D01*
X-7585714Y-4807200D02*
X-7680952Y-4854819D01*
X-7680952Y-4854819D02*
X-7919047Y-4854819D01*
X-7919047Y-4854819D02*
X-8014285Y-4807200D01*
X-8014285Y-4807200D02*
X-8061904Y-4759580D01*
X-14661904Y-6754819D02*
X-14661904Y-7564342D01*
X-14661904Y-7564342D02*
X-14614285Y-7659580D01*
X-14614285Y-7659580D02*
X-14566666Y-7707200D01*
X-14566666Y-7707200D02*
X-14471428Y-7754819D01*
X-14471428Y-7754819D02*
X-14280952Y-7754819D01*
X-14280952Y-7754819D02*
X-14185714Y-7707200D01*
X-14185714Y-7707200D02*
X-14138095Y-7659580D01*
X-14138095Y-7659580D02*
X-14090476Y-7564342D01*
X-14090476Y-7564342D02*
X-14090476Y-6754819D01*
X-13661904Y-6850057D02*
X-13614285Y-6802438D01*
X-13614285Y-6802438D02*
X-13519047Y-6754819D01*
X-13519047Y-6754819D02*
X-13280952Y-6754819D01*
X-13280952Y-6754819D02*
X-13185714Y-6802438D01*
X-13185714Y-6802438D02*
X-13138095Y-6850057D01*
X-13138095Y-6850057D02*
X-13090476Y-6945295D01*
X-13090476Y-6945295D02*
X-13090476Y-7040533D01*
X-13090476Y-7040533D02*
X-13138095Y-7183390D01*
X-13138095Y-7183390D02*
X-13709523Y-7754819D01*
X-13709523Y-7754819D02*
X-13090476Y-7754819D01*
X20233333Y37675180D02*
X19900000Y38151371D01*
X19661905Y37675180D02*
X19661905Y38675180D01*
X19661905Y38675180D02*
X20042857Y38675180D01*
X20042857Y38675180D02*
X20138095Y38627561D01*
X20138095Y38627561D02*
X20185714Y38579942D01*
X20185714Y38579942D02*
X20233333Y38484704D01*
X20233333Y38484704D02*
X20233333Y38341847D01*
X20233333Y38341847D02*
X20185714Y38246609D01*
X20185714Y38246609D02*
X20138095Y38198990D01*
X20138095Y38198990D02*
X20042857Y38151371D01*
X20042857Y38151371D02*
X19661905Y38151371D01*
X21185714Y37675180D02*
X20614286Y37675180D01*
X20900000Y37675180D02*
X20900000Y38675180D01*
X20900000Y38675180D02*
X20804762Y38532323D01*
X20804762Y38532323D02*
X20709524Y38437085D01*
X20709524Y38437085D02*
X20614286Y38389466D01*
X-2713895Y2085714D02*
X-2675800Y2047618D01*
X-2675800Y2047618D02*
X-2637704Y1933333D01*
X-2637704Y1933333D02*
X-2637704Y1857142D01*
X-2637704Y1857142D02*
X-2675800Y1742856D01*
X-2675800Y1742856D02*
X-2751990Y1666666D01*
X-2751990Y1666666D02*
X-2828180Y1628571D01*
X-2828180Y1628571D02*
X-2980561Y1590475D01*
X-2980561Y1590475D02*
X-3094847Y1590475D01*
X-3094847Y1590475D02*
X-3247228Y1628571D01*
X-3247228Y1628571D02*
X-3323419Y1666666D01*
X-3323419Y1666666D02*
X-3399609Y1742856D01*
X-3399609Y1742856D02*
X-3437704Y1857142D01*
X-3437704Y1857142D02*
X-3437704Y1933333D01*
X-3437704Y1933333D02*
X-3399609Y2047618D01*
X-3399609Y2047618D02*
X-3361514Y2085714D01*
X-2637704Y2847618D02*
X-2637704Y2390475D01*
X-2637704Y2619047D02*
X-3437704Y2619047D01*
X-3437704Y2619047D02*
X-3323419Y2542856D01*
X-3323419Y2542856D02*
X-3247228Y2466666D01*
X-3247228Y2466666D02*
X-3209133Y2390475D01*
X-3437704Y3533333D02*
X-3437704Y3380952D01*
X-3437704Y3380952D02*
X-3399609Y3304761D01*
X-3399609Y3304761D02*
X-3361514Y3266666D01*
X-3361514Y3266666D02*
X-3247228Y3190476D01*
X-3247228Y3190476D02*
X-3094847Y3152380D01*
X-3094847Y3152380D02*
X-2790085Y3152380D01*
X-2790085Y3152380D02*
X-2713895Y3190476D01*
X-2713895Y3190476D02*
X-2675800Y3228571D01*
X-2675800Y3228571D02*
X-2637704Y3304761D01*
X-2637704Y3304761D02*
X-2637704Y3457142D01*
X-2637704Y3457142D02*
X-2675800Y3533333D01*
X-2675800Y3533333D02*
X-2713895Y3571428D01*
X-2713895Y3571428D02*
X-2790085Y3609523D01*
X-2790085Y3609523D02*
X-2980561Y3609523D01*
X-2980561Y3609523D02*
X-3056752Y3571428D01*
X-3056752Y3571428D02*
X-3094847Y3533333D01*
X-3094847Y3533333D02*
X-3132942Y3457142D01*
X-3132942Y3457142D02*
X-3132942Y3304761D01*
X-3132942Y3304761D02*
X-3094847Y3228571D01*
X-3094847Y3228571D02*
X-3056752Y3190476D01*
X-3056752Y3190476D02*
X-2980561Y3152380D01*
X-24265180Y-2243333D02*
X-23550895Y-2243333D01*
X-23550895Y-2243333D02*
X-23408038Y-2290952D01*
X-23408038Y-2290952D02*
X-23312800Y-2386190D01*
X-23312800Y-2386190D02*
X-23265180Y-2529047D01*
X-23265180Y-2529047D02*
X-23265180Y-2624285D01*
X-23265180Y-1767142D02*
X-24265180Y-1767142D01*
X-24265180Y-1767142D02*
X-24265180Y-1386190D01*
X-24265180Y-1386190D02*
X-24217561Y-1290952D01*
X-24217561Y-1290952D02*
X-24169942Y-1243333D01*
X-24169942Y-1243333D02*
X-24074704Y-1195714D01*
X-24074704Y-1195714D02*
X-23931847Y-1195714D01*
X-23931847Y-1195714D02*
X-23836609Y-1243333D01*
X-23836609Y-1243333D02*
X-23788990Y-1290952D01*
X-23788990Y-1290952D02*
X-23741371Y-1386190D01*
X-23741371Y-1386190D02*
X-23741371Y-1767142D01*
X-23265180Y-243333D02*
X-23265180Y-814761D01*
X-23265180Y-529047D02*
X-24265180Y-529047D01*
X-24265180Y-529047D02*
X-24122323Y-624285D01*
X-24122323Y-624285D02*
X-24027085Y-719523D01*
X-24027085Y-719523D02*
X-23979466Y-814761D01*
X33834819Y7794417D02*
X34549104Y7794417D01*
X34549104Y7794417D02*
X34691961Y7746798D01*
X34691961Y7746798D02*
X34787200Y7651560D01*
X34787200Y7651560D02*
X34834819Y7508703D01*
X34834819Y7508703D02*
X34834819Y7413465D01*
X34834819Y8270608D02*
X33834819Y8270608D01*
X33834819Y8270608D02*
X33834819Y8651560D01*
X33834819Y8651560D02*
X33882438Y8746798D01*
X33882438Y8746798D02*
X33930057Y8794417D01*
X33930057Y8794417D02*
X34025295Y8842036D01*
X34025295Y8842036D02*
X34168152Y8842036D01*
X34168152Y8842036D02*
X34263390Y8794417D01*
X34263390Y8794417D02*
X34311009Y8746798D01*
X34311009Y8746798D02*
X34358628Y8651560D01*
X34358628Y8651560D02*
X34358628Y8270608D01*
X33834819Y9746798D02*
X33834819Y9270608D01*
X33834819Y9270608D02*
X34311009Y9222989D01*
X34311009Y9222989D02*
X34263390Y9270608D01*
X34263390Y9270608D02*
X34215771Y9365846D01*
X34215771Y9365846D02*
X34215771Y9603941D01*
X34215771Y9603941D02*
X34263390Y9699179D01*
X34263390Y9699179D02*
X34311009Y9746798D01*
X34311009Y9746798D02*
X34406247Y9794417D01*
X34406247Y9794417D02*
X34644342Y9794417D01*
X34644342Y9794417D02*
X34739580Y9746798D01*
X34739580Y9746798D02*
X34787200Y9699179D01*
X34787200Y9699179D02*
X34834819Y9603941D01*
X34834819Y9603941D02*
X34834819Y9365846D01*
X34834819Y9365846D02*
X34787200Y9270608D01*
X34787200Y9270608D02*
X34739580Y9222989D01*
X8133333Y-17854819D02*
X7800000Y-17378628D01*
X7561905Y-17854819D02*
X7561905Y-16854819D01*
X7561905Y-16854819D02*
X7942857Y-16854819D01*
X7942857Y-16854819D02*
X8038095Y-16902438D01*
X8038095Y-16902438D02*
X8085714Y-16950057D01*
X8085714Y-16950057D02*
X8133333Y-17045295D01*
X8133333Y-17045295D02*
X8133333Y-17188152D01*
X8133333Y-17188152D02*
X8085714Y-17283390D01*
X8085714Y-17283390D02*
X8038095Y-17331009D01*
X8038095Y-17331009D02*
X7942857Y-17378628D01*
X7942857Y-17378628D02*
X7561905Y-17378628D01*
X8609524Y-17854819D02*
X8800000Y-17854819D01*
X8800000Y-17854819D02*
X8895238Y-17807200D01*
X8895238Y-17807200D02*
X8942857Y-17759580D01*
X8942857Y-17759580D02*
X9038095Y-17616723D01*
X9038095Y-17616723D02*
X9085714Y-17426247D01*
X9085714Y-17426247D02*
X9085714Y-17045295D01*
X9085714Y-17045295D02*
X9038095Y-16950057D01*
X9038095Y-16950057D02*
X8990476Y-16902438D01*
X8990476Y-16902438D02*
X8895238Y-16854819D01*
X8895238Y-16854819D02*
X8704762Y-16854819D01*
X8704762Y-16854819D02*
X8609524Y-16902438D01*
X8609524Y-16902438D02*
X8561905Y-16950057D01*
X8561905Y-16950057D02*
X8514286Y-17045295D01*
X8514286Y-17045295D02*
X8514286Y-17283390D01*
X8514286Y-17283390D02*
X8561905Y-17378628D01*
X8561905Y-17378628D02*
X8609524Y-17426247D01*
X8609524Y-17426247D02*
X8704762Y-17473866D01*
X8704762Y-17473866D02*
X8895238Y-17473866D01*
X8895238Y-17473866D02*
X8990476Y-17426247D01*
X8990476Y-17426247D02*
X9038095Y-17378628D01*
X9038095Y-17378628D02*
X9085714Y-17283390D01*
X8133333Y-19454819D02*
X7800000Y-18978628D01*
X7561905Y-19454819D02*
X7561905Y-18454819D01*
X7561905Y-18454819D02*
X7942857Y-18454819D01*
X7942857Y-18454819D02*
X8038095Y-18502438D01*
X8038095Y-18502438D02*
X8085714Y-18550057D01*
X8085714Y-18550057D02*
X8133333Y-18645295D01*
X8133333Y-18645295D02*
X8133333Y-18788152D01*
X8133333Y-18788152D02*
X8085714Y-18883390D01*
X8085714Y-18883390D02*
X8038095Y-18931009D01*
X8038095Y-18931009D02*
X7942857Y-18978628D01*
X7942857Y-18978628D02*
X7561905Y-18978628D01*
X8704762Y-18883390D02*
X8609524Y-18835771D01*
X8609524Y-18835771D02*
X8561905Y-18788152D01*
X8561905Y-18788152D02*
X8514286Y-18692914D01*
X8514286Y-18692914D02*
X8514286Y-18645295D01*
X8514286Y-18645295D02*
X8561905Y-18550057D01*
X8561905Y-18550057D02*
X8609524Y-18502438D01*
X8609524Y-18502438D02*
X8704762Y-18454819D01*
X8704762Y-18454819D02*
X8895238Y-18454819D01*
X8895238Y-18454819D02*
X8990476Y-18502438D01*
X8990476Y-18502438D02*
X9038095Y-18550057D01*
X9038095Y-18550057D02*
X9085714Y-18645295D01*
X9085714Y-18645295D02*
X9085714Y-18692914D01*
X9085714Y-18692914D02*
X9038095Y-18788152D01*
X9038095Y-18788152D02*
X8990476Y-18835771D01*
X8990476Y-18835771D02*
X8895238Y-18883390D01*
X8895238Y-18883390D02*
X8704762Y-18883390D01*
X8704762Y-18883390D02*
X8609524Y-18931009D01*
X8609524Y-18931009D02*
X8561905Y-18978628D01*
X8561905Y-18978628D02*
X8514286Y-19073866D01*
X8514286Y-19073866D02*
X8514286Y-19264342D01*
X8514286Y-19264342D02*
X8561905Y-19359580D01*
X8561905Y-19359580D02*
X8609524Y-19407200D01*
X8609524Y-19407200D02*
X8704762Y-19454819D01*
X8704762Y-19454819D02*
X8895238Y-19454819D01*
X8895238Y-19454819D02*
X8990476Y-19407200D01*
X8990476Y-19407200D02*
X9038095Y-19359580D01*
X9038095Y-19359580D02*
X9085714Y-19264342D01*
X9085714Y-19264342D02*
X9085714Y-19073866D01*
X9085714Y-19073866D02*
X9038095Y-18978628D01*
X9038095Y-18978628D02*
X8990476Y-18931009D01*
X8990476Y-18931009D02*
X8895238Y-18883390D01*
X-7809580Y29745529D02*
X-8469494Y29472184D01*
X-8469494Y29472184D02*
X-8619700Y29461509D01*
X-8619700Y29461509D02*
X-8744134Y29513051D01*
X-8744134Y29513051D02*
X-8842798Y29626811D01*
X-8842798Y29626811D02*
X-8879244Y29714800D01*
X-8551229Y28922903D02*
X-7627350Y29305586D01*
X-7627350Y29305586D02*
X-7481565Y28953632D01*
X-7481565Y28953632D02*
X-7489114Y28847420D01*
X-7489114Y28847420D02*
X-7514885Y28785203D01*
X-7514885Y28785203D02*
X-7584650Y28704763D01*
X-7584650Y28704763D02*
X-7716633Y28650094D01*
X-7716633Y28650094D02*
X-7822845Y28657642D01*
X-7822845Y28657642D02*
X-7885062Y28683413D01*
X-7885062Y28683413D02*
X-7965502Y28753179D01*
X-7965502Y28753179D02*
X-8111286Y29105133D01*
X-7585945Y28085717D02*
X-7578397Y28191928D01*
X-7578397Y28191928D02*
X-7552626Y28254145D01*
X-7552626Y28254145D02*
X-7482861Y28334586D01*
X-7482861Y28334586D02*
X-7438866Y28352809D01*
X-7438866Y28352809D02*
X-7332655Y28345261D01*
X-7332655Y28345261D02*
X-7270437Y28319489D01*
X-7270437Y28319489D02*
X-7189997Y28249724D01*
X-7189997Y28249724D02*
X-7117105Y28073747D01*
X-7117105Y28073747D02*
X-7124653Y27967535D01*
X-7124653Y27967535D02*
X-7150424Y27905318D01*
X-7150424Y27905318D02*
X-7220190Y27824878D01*
X-7220190Y27824878D02*
X-7264184Y27806655D01*
X-7264184Y27806655D02*
X-7370396Y27814203D01*
X-7370396Y27814203D02*
X-7432613Y27839974D01*
X-7432613Y27839974D02*
X-7513053Y27909740D01*
X-7513053Y27909740D02*
X-7585945Y28085717D01*
X-7585945Y28085717D02*
X-7666386Y28155482D01*
X-7666386Y28155482D02*
X-7728603Y28181253D01*
X-7728603Y28181253D02*
X-7834815Y28188802D01*
X-7834815Y28188802D02*
X-8010792Y28115909D01*
X-8010792Y28115909D02*
X-8080557Y28035469D01*
X-8080557Y28035469D02*
X-8106328Y27973252D01*
X-8106328Y27973252D02*
X-8113877Y27867040D01*
X-8113877Y27867040D02*
X-8040985Y27691063D01*
X-8040985Y27691063D02*
X-7960544Y27621298D01*
X-7960544Y27621298D02*
X-7898327Y27595527D01*
X-7898327Y27595527D02*
X-7792115Y27587978D01*
X-7792115Y27587978D02*
X-7616138Y27660870D01*
X-7616138Y27660870D02*
X-7546373Y27741311D01*
X-7546373Y27741311D02*
X-7520602Y27803528D01*
X-7520602Y27803528D02*
X-7513053Y27909740D01*
X8654819Y-166666D02*
X8654819Y-642856D01*
X8654819Y-642856D02*
X7654819Y-642856D01*
X8654819Y690476D02*
X8654819Y119048D01*
X8654819Y404762D02*
X7654819Y404762D01*
X7654819Y404762D02*
X7797676Y309524D01*
X7797676Y309524D02*
X7892914Y214286D01*
X7892914Y214286D02*
X7940533Y119048D01*
X1766666Y-354819D02*
X1766666Y-1069104D01*
X1766666Y-1069104D02*
X1719047Y-1211961D01*
X1719047Y-1211961D02*
X1623809Y-1307200D01*
X1623809Y-1307200D02*
X1480952Y-1354819D01*
X1480952Y-1354819D02*
X1385714Y-1354819D01*
X2242857Y-1354819D02*
X2242857Y-354819D01*
X2242857Y-354819D02*
X2623809Y-354819D01*
X2623809Y-354819D02*
X2719047Y-402438D01*
X2719047Y-402438D02*
X2766666Y-450057D01*
X2766666Y-450057D02*
X2814285Y-545295D01*
X2814285Y-545295D02*
X2814285Y-688152D01*
X2814285Y-688152D02*
X2766666Y-783390D01*
X2766666Y-783390D02*
X2719047Y-831009D01*
X2719047Y-831009D02*
X2623809Y-878628D01*
X2623809Y-878628D02*
X2242857Y-878628D01*
X3147619Y-354819D02*
X3766666Y-354819D01*
X3766666Y-354819D02*
X3433333Y-735771D01*
X3433333Y-735771D02*
X3576190Y-735771D01*
X3576190Y-735771D02*
X3671428Y-783390D01*
X3671428Y-783390D02*
X3719047Y-831009D01*
X3719047Y-831009D02*
X3766666Y-926247D01*
X3766666Y-926247D02*
X3766666Y-1164342D01*
X3766666Y-1164342D02*
X3719047Y-1259580D01*
X3719047Y-1259580D02*
X3671428Y-1307200D01*
X3671428Y-1307200D02*
X3576190Y-1354819D01*
X3576190Y-1354819D02*
X3290476Y-1354819D01*
X3290476Y-1354819D02*
X3195238Y-1307200D01*
X3195238Y-1307200D02*
X3147619Y-1259580D01*
X-9340419Y-15142857D02*
X-9292800Y-15190476D01*
X-9292800Y-15190476D02*
X-9245180Y-15333333D01*
X-9245180Y-15333333D02*
X-9245180Y-15428571D01*
X-9245180Y-15428571D02*
X-9292800Y-15571428D01*
X-9292800Y-15571428D02*
X-9388038Y-15666666D01*
X-9388038Y-15666666D02*
X-9483276Y-15714285D01*
X-9483276Y-15714285D02*
X-9673752Y-15761904D01*
X-9673752Y-15761904D02*
X-9816609Y-15761904D01*
X-9816609Y-15761904D02*
X-10007085Y-15714285D01*
X-10007085Y-15714285D02*
X-10102323Y-15666666D01*
X-10102323Y-15666666D02*
X-10197561Y-15571428D01*
X-10197561Y-15571428D02*
X-10245180Y-15428571D01*
X-10245180Y-15428571D02*
X-10245180Y-15333333D01*
X-10245180Y-15333333D02*
X-10197561Y-15190476D01*
X-10197561Y-15190476D02*
X-10149942Y-15142857D01*
X-9245180Y-14190476D02*
X-9245180Y-14761904D01*
X-9245180Y-14476190D02*
X-10245180Y-14476190D01*
X-10245180Y-14476190D02*
X-10102323Y-14571428D01*
X-10102323Y-14571428D02*
X-10007085Y-14666666D01*
X-10007085Y-14666666D02*
X-9959466Y-14761904D01*
X-9245180Y-13238095D02*
X-9245180Y-13809523D01*
X-9245180Y-13523809D02*
X-10245180Y-13523809D01*
X-10245180Y-13523809D02*
X-10102323Y-13619047D01*
X-10102323Y-13619047D02*
X-10007085Y-13714285D01*
X-10007085Y-13714285D02*
X-9959466Y-13809523D01*
X-666666Y-10359580D02*
X-714285Y-10407200D01*
X-714285Y-10407200D02*
X-857142Y-10454819D01*
X-857142Y-10454819D02*
X-952380Y-10454819D01*
X-952380Y-10454819D02*
X-1095237Y-10407200D01*
X-1095237Y-10407200D02*
X-1190475Y-10311961D01*
X-1190475Y-10311961D02*
X-1238094Y-10216723D01*
X-1238094Y-10216723D02*
X-1285713Y-10026247D01*
X-1285713Y-10026247D02*
X-1285713Y-9883390D01*
X-1285713Y-9883390D02*
X-1238094Y-9692914D01*
X-1238094Y-9692914D02*
X-1190475Y-9597676D01*
X-1190475Y-9597676D02*
X-1095237Y-9502438D01*
X-1095237Y-9502438D02*
X-952380Y-9454819D01*
X-952380Y-9454819D02*
X-857142Y-9454819D01*
X-857142Y-9454819D02*
X-714285Y-9502438D01*
X-714285Y-9502438D02*
X-666666Y-9550057D01*
X190476Y-9788152D02*
X190476Y-10454819D01*
X-47618Y-9407200D02*
X-285713Y-10121485D01*
X-285713Y-10121485D02*
X333333Y-10121485D01*
X-21240419Y-8516666D02*
X-21192800Y-8564285D01*
X-21192800Y-8564285D02*
X-21145180Y-8707142D01*
X-21145180Y-8707142D02*
X-21145180Y-8802380D01*
X-21145180Y-8802380D02*
X-21192800Y-8945237D01*
X-21192800Y-8945237D02*
X-21288038Y-9040475D01*
X-21288038Y-9040475D02*
X-21383276Y-9088094D01*
X-21383276Y-9088094D02*
X-21573752Y-9135713D01*
X-21573752Y-9135713D02*
X-21716609Y-9135713D01*
X-21716609Y-9135713D02*
X-21907085Y-9088094D01*
X-21907085Y-9088094D02*
X-22002323Y-9040475D01*
X-22002323Y-9040475D02*
X-22097561Y-8945237D01*
X-22097561Y-8945237D02*
X-22145180Y-8802380D01*
X-22145180Y-8802380D02*
X-22145180Y-8707142D01*
X-22145180Y-8707142D02*
X-22097561Y-8564285D01*
X-22097561Y-8564285D02*
X-22049942Y-8516666D01*
X-22145180Y-7659523D02*
X-22145180Y-7849999D01*
X-22145180Y-7849999D02*
X-22097561Y-7945237D01*
X-22097561Y-7945237D02*
X-22049942Y-7992856D01*
X-22049942Y-7992856D02*
X-21907085Y-8088094D01*
X-21907085Y-8088094D02*
X-21716609Y-8135713D01*
X-21716609Y-8135713D02*
X-21335657Y-8135713D01*
X-21335657Y-8135713D02*
X-21240419Y-8088094D01*
X-21240419Y-8088094D02*
X-21192800Y-8040475D01*
X-21192800Y-8040475D02*
X-21145180Y-7945237D01*
X-21145180Y-7945237D02*
X-21145180Y-7754761D01*
X-21145180Y-7754761D02*
X-21192800Y-7659523D01*
X-21192800Y-7659523D02*
X-21240419Y-7611904D01*
X-21240419Y-7611904D02*
X-21335657Y-7564285D01*
X-21335657Y-7564285D02*
X-21573752Y-7564285D01*
X-21573752Y-7564285D02*
X-21668990Y-7611904D01*
X-21668990Y-7611904D02*
X-21716609Y-7659523D01*
X-21716609Y-7659523D02*
X-21764228Y-7754761D01*
X-21764228Y-7754761D02*
X-21764228Y-7945237D01*
X-21764228Y-7945237D02*
X-21716609Y-8040475D01*
X-21716609Y-8040475D02*
X-21668990Y-8088094D01*
X-21668990Y-8088094D02*
X-21573752Y-8135713D01*
X-3866666Y-9359580D02*
X-3914285Y-9407200D01*
X-3914285Y-9407200D02*
X-4057142Y-9454819D01*
X-4057142Y-9454819D02*
X-4152380Y-9454819D01*
X-4152380Y-9454819D02*
X-4295237Y-9407200D01*
X-4295237Y-9407200D02*
X-4390475Y-9311961D01*
X-4390475Y-9311961D02*
X-4438094Y-9216723D01*
X-4438094Y-9216723D02*
X-4485713Y-9026247D01*
X-4485713Y-9026247D02*
X-4485713Y-8883390D01*
X-4485713Y-8883390D02*
X-4438094Y-8692914D01*
X-4438094Y-8692914D02*
X-4390475Y-8597676D01*
X-4390475Y-8597676D02*
X-4295237Y-8502438D01*
X-4295237Y-8502438D02*
X-4152380Y-8454819D01*
X-4152380Y-8454819D02*
X-4057142Y-8454819D01*
X-4057142Y-8454819D02*
X-3914285Y-8502438D01*
X-3914285Y-8502438D02*
X-3866666Y-8550057D01*
X-3390475Y-9454819D02*
X-3199999Y-9454819D01*
X-3199999Y-9454819D02*
X-3104761Y-9407200D01*
X-3104761Y-9407200D02*
X-3057142Y-9359580D01*
X-3057142Y-9359580D02*
X-2961904Y-9216723D01*
X-2961904Y-9216723D02*
X-2914285Y-9026247D01*
X-2914285Y-9026247D02*
X-2914285Y-8645295D01*
X-2914285Y-8645295D02*
X-2961904Y-8550057D01*
X-2961904Y-8550057D02*
X-3009523Y-8502438D01*
X-3009523Y-8502438D02*
X-3104761Y-8454819D01*
X-3104761Y-8454819D02*
X-3295237Y-8454819D01*
X-3295237Y-8454819D02*
X-3390475Y-8502438D01*
X-3390475Y-8502438D02*
X-3438094Y-8550057D01*
X-3438094Y-8550057D02*
X-3485713Y-8645295D01*
X-3485713Y-8645295D02*
X-3485713Y-8883390D01*
X-3485713Y-8883390D02*
X-3438094Y-8978628D01*
X-3438094Y-8978628D02*
X-3390475Y-9026247D01*
X-3390475Y-9026247D02*
X-3295237Y-9073866D01*
X-3295237Y-9073866D02*
X-3104761Y-9073866D01*
X-3104761Y-9073866D02*
X-3009523Y-9026247D01*
X-3009523Y-9026247D02*
X-2961904Y-8978628D01*
X-2961904Y-8978628D02*
X-2914285Y-8883390D01*
X-10840419Y-15142857D02*
X-10792800Y-15190476D01*
X-10792800Y-15190476D02*
X-10745180Y-15333333D01*
X-10745180Y-15333333D02*
X-10745180Y-15428571D01*
X-10745180Y-15428571D02*
X-10792800Y-15571428D01*
X-10792800Y-15571428D02*
X-10888038Y-15666666D01*
X-10888038Y-15666666D02*
X-10983276Y-15714285D01*
X-10983276Y-15714285D02*
X-11173752Y-15761904D01*
X-11173752Y-15761904D02*
X-11316609Y-15761904D01*
X-11316609Y-15761904D02*
X-11507085Y-15714285D01*
X-11507085Y-15714285D02*
X-11602323Y-15666666D01*
X-11602323Y-15666666D02*
X-11697561Y-15571428D01*
X-11697561Y-15571428D02*
X-11745180Y-15428571D01*
X-11745180Y-15428571D02*
X-11745180Y-15333333D01*
X-11745180Y-15333333D02*
X-11697561Y-15190476D01*
X-11697561Y-15190476D02*
X-11649942Y-15142857D01*
X-10745180Y-14190476D02*
X-10745180Y-14761904D01*
X-10745180Y-14476190D02*
X-11745180Y-14476190D01*
X-11745180Y-14476190D02*
X-11602323Y-14571428D01*
X-11602323Y-14571428D02*
X-11507085Y-14666666D01*
X-11507085Y-14666666D02*
X-11459466Y-14761904D01*
X-11649942Y-13809523D02*
X-11697561Y-13761904D01*
X-11697561Y-13761904D02*
X-11745180Y-13666666D01*
X-11745180Y-13666666D02*
X-11745180Y-13428571D01*
X-11745180Y-13428571D02*
X-11697561Y-13333333D01*
X-11697561Y-13333333D02*
X-11649942Y-13285714D01*
X-11649942Y-13285714D02*
X-11554704Y-13238095D01*
X-11554704Y-13238095D02*
X-11459466Y-13238095D01*
X-11459466Y-13238095D02*
X-11316609Y-13285714D01*
X-11316609Y-13285714D02*
X-10745180Y-13857142D01*
X-10745180Y-13857142D02*
X-10745180Y-13238095D01*
X-1188333Y6045180D02*
X-1188333Y5330895D01*
X-1188333Y5330895D02*
X-1235952Y5188038D01*
X-1235952Y5188038D02*
X-1331190Y5092800D01*
X-1331190Y5092800D02*
X-1474047Y5045180D01*
X-1474047Y5045180D02*
X-1569285Y5045180D01*
X-188333Y5045180D02*
X-759761Y5045180D01*
X-474047Y5045180D02*
X-474047Y6045180D01*
X-474047Y6045180D02*
X-569285Y5902323D01*
X-569285Y5902323D02*
X-664523Y5807085D01*
X-664523Y5807085D02*
X-759761Y5759466D01*
X359580Y-542857D02*
X407200Y-590476D01*
X407200Y-590476D02*
X454819Y-733333D01*
X454819Y-733333D02*
X454819Y-828571D01*
X454819Y-828571D02*
X407200Y-971428D01*
X407200Y-971428D02*
X311961Y-1066666D01*
X311961Y-1066666D02*
X216723Y-1114285D01*
X216723Y-1114285D02*
X26247Y-1161904D01*
X26247Y-1161904D02*
X-116609Y-1161904D01*
X-116609Y-1161904D02*
X-307085Y-1114285D01*
X-307085Y-1114285D02*
X-402323Y-1066666D01*
X-402323Y-1066666D02*
X-497561Y-971428D01*
X-497561Y-971428D02*
X-545180Y-828571D01*
X-545180Y-828571D02*
X-545180Y-733333D01*
X-545180Y-733333D02*
X-497561Y-590476D01*
X-497561Y-590476D02*
X-449942Y-542857D01*
X454819Y409523D02*
X454819Y-161904D01*
X454819Y123809D02*
X-545180Y123809D01*
X-545180Y123809D02*
X-402323Y28571D01*
X-402323Y28571D02*
X-307085Y-66666D01*
X-307085Y-66666D02*
X-259466Y-161904D01*
X-211847Y1266666D02*
X454819Y1266666D01*
X-592800Y1028571D02*
X121485Y790476D01*
X121485Y790476D02*
X121485Y1409523D01*
X-3842857Y-7954819D02*
X-4176190Y-7478628D01*
X-4414285Y-7954819D02*
X-4414285Y-6954819D01*
X-4414285Y-6954819D02*
X-4033333Y-6954819D01*
X-4033333Y-6954819D02*
X-3938095Y-7002438D01*
X-3938095Y-7002438D02*
X-3890476Y-7050057D01*
X-3890476Y-7050057D02*
X-3842857Y-7145295D01*
X-3842857Y-7145295D02*
X-3842857Y-7288152D01*
X-3842857Y-7288152D02*
X-3890476Y-7383390D01*
X-3890476Y-7383390D02*
X-3938095Y-7431009D01*
X-3938095Y-7431009D02*
X-4033333Y-7478628D01*
X-4033333Y-7478628D02*
X-4414285Y-7478628D01*
X-2890476Y-7954819D02*
X-3461904Y-7954819D01*
X-3176190Y-7954819D02*
X-3176190Y-6954819D01*
X-3176190Y-6954819D02*
X-3271428Y-7097676D01*
X-3271428Y-7097676D02*
X-3366666Y-7192914D01*
X-3366666Y-7192914D02*
X-3461904Y-7240533D01*
X-2509523Y-7050057D02*
X-2461904Y-7002438D01*
X-2461904Y-7002438D02*
X-2366666Y-6954819D01*
X-2366666Y-6954819D02*
X-2128571Y-6954819D01*
X-2128571Y-6954819D02*
X-2033333Y-7002438D01*
X-2033333Y-7002438D02*
X-1985714Y-7050057D01*
X-1985714Y-7050057D02*
X-1938095Y-7145295D01*
X-1938095Y-7145295D02*
X-1938095Y-7240533D01*
X-1938095Y-7240533D02*
X-1985714Y-7383390D01*
X-1985714Y-7383390D02*
X-2557142Y-7954819D01*
X-2557142Y-7954819D02*
X-1938095Y-7954819D01*
X11375883Y43645180D02*
X11375883Y44645180D01*
X11375883Y44645180D02*
X11613978Y44645180D01*
X11613978Y44645180D02*
X11756835Y44597561D01*
X11756835Y44597561D02*
X11852073Y44502323D01*
X11852073Y44502323D02*
X11899692Y44407085D01*
X11899692Y44407085D02*
X11947311Y44216609D01*
X11947311Y44216609D02*
X11947311Y44073752D01*
X11947311Y44073752D02*
X11899692Y43883276D01*
X11899692Y43883276D02*
X11852073Y43788038D01*
X11852073Y43788038D02*
X11756835Y43692800D01*
X11756835Y43692800D02*
X11613978Y43645180D01*
X11613978Y43645180D02*
X11375883Y43645180D01*
X12709216Y44168990D02*
X12852073Y44121371D01*
X12852073Y44121371D02*
X12899692Y44073752D01*
X12899692Y44073752D02*
X12947311Y43978514D01*
X12947311Y43978514D02*
X12947311Y43835657D01*
X12947311Y43835657D02*
X12899692Y43740419D01*
X12899692Y43740419D02*
X12852073Y43692800D01*
X12852073Y43692800D02*
X12756835Y43645180D01*
X12756835Y43645180D02*
X12375883Y43645180D01*
X12375883Y43645180D02*
X12375883Y44645180D01*
X12375883Y44645180D02*
X12709216Y44645180D01*
X12709216Y44645180D02*
X12804454Y44597561D01*
X12804454Y44597561D02*
X12852073Y44549942D01*
X12852073Y44549942D02*
X12899692Y44454704D01*
X12899692Y44454704D02*
X12899692Y44359466D01*
X12899692Y44359466D02*
X12852073Y44264228D01*
X12852073Y44264228D02*
X12804454Y44216609D01*
X12804454Y44216609D02*
X12709216Y44168990D01*
X12709216Y44168990D02*
X12375883Y44168990D01*
X13899692Y43645180D02*
X13328264Y43645180D01*
X13613978Y43645180D02*
X13613978Y44645180D01*
X13613978Y44645180D02*
X13518740Y44502323D01*
X13518740Y44502323D02*
X13423502Y44407085D01*
X13423502Y44407085D02*
X13328264Y44359466D01*
X4804761Y43945180D02*
X4471428Y44421371D01*
X4233333Y43945180D02*
X4233333Y44945180D01*
X4233333Y44945180D02*
X4614285Y44945180D01*
X4614285Y44945180D02*
X4709523Y44897561D01*
X4709523Y44897561D02*
X4757142Y44849942D01*
X4757142Y44849942D02*
X4804761Y44754704D01*
X4804761Y44754704D02*
X4804761Y44611847D01*
X4804761Y44611847D02*
X4757142Y44516609D01*
X4757142Y44516609D02*
X4709523Y44468990D01*
X4709523Y44468990D02*
X4614285Y44421371D01*
X4614285Y44421371D02*
X4233333Y44421371D01*
X5090476Y44945180D02*
X5423809Y43945180D01*
X5423809Y43945180D02*
X5757142Y44945180D01*
X6614285Y43945180D02*
X6042857Y43945180D01*
X6328571Y43945180D02*
X6328571Y44945180D01*
X6328571Y44945180D02*
X6233333Y44802323D01*
X6233333Y44802323D02*
X6138095Y44707085D01*
X6138095Y44707085D02*
X6042857Y44659466D01*
X16904761Y-14250057D02*
X16809523Y-14202438D01*
X16809523Y-14202438D02*
X16714285Y-14107200D01*
X16714285Y-14107200D02*
X16571428Y-13964342D01*
X16571428Y-13964342D02*
X16476190Y-13916723D01*
X16476190Y-13916723D02*
X16380952Y-13916723D01*
X16428571Y-14154819D02*
X16333333Y-14107200D01*
X16333333Y-14107200D02*
X16238095Y-14011961D01*
X16238095Y-14011961D02*
X16190476Y-13821485D01*
X16190476Y-13821485D02*
X16190476Y-13488152D01*
X16190476Y-13488152D02*
X16238095Y-13297676D01*
X16238095Y-13297676D02*
X16333333Y-13202438D01*
X16333333Y-13202438D02*
X16428571Y-13154819D01*
X16428571Y-13154819D02*
X16619047Y-13154819D01*
X16619047Y-13154819D02*
X16714285Y-13202438D01*
X16714285Y-13202438D02*
X16809523Y-13297676D01*
X16809523Y-13297676D02*
X16857142Y-13488152D01*
X16857142Y-13488152D02*
X16857142Y-13821485D01*
X16857142Y-13821485D02*
X16809523Y-14011961D01*
X16809523Y-14011961D02*
X16714285Y-14107200D01*
X16714285Y-14107200D02*
X16619047Y-14154819D01*
X16619047Y-14154819D02*
X16428571Y-14154819D01*
X17809523Y-14154819D02*
X17238095Y-14154819D01*
X17523809Y-14154819D02*
X17523809Y-13154819D01*
X17523809Y-13154819D02*
X17428571Y-13297676D01*
X17428571Y-13297676D02*
X17333333Y-13392914D01*
X17333333Y-13392914D02*
X17238095Y-13440533D01*
X-19340419Y1107142D02*
X-19292800Y1059523D01*
X-19292800Y1059523D02*
X-19245180Y916666D01*
X-19245180Y916666D02*
X-19245180Y821428D01*
X-19245180Y821428D02*
X-19292800Y678571D01*
X-19292800Y678571D02*
X-19388038Y583333D01*
X-19388038Y583333D02*
X-19483276Y535714D01*
X-19483276Y535714D02*
X-19673752Y488095D01*
X-19673752Y488095D02*
X-19816609Y488095D01*
X-19816609Y488095D02*
X-20007085Y535714D01*
X-20007085Y535714D02*
X-20102323Y583333D01*
X-20102323Y583333D02*
X-20197561Y678571D01*
X-20197561Y678571D02*
X-20245180Y821428D01*
X-20245180Y821428D02*
X-20245180Y916666D01*
X-20245180Y916666D02*
X-20197561Y1059523D01*
X-20197561Y1059523D02*
X-20149942Y1107142D01*
X-19245180Y2059523D02*
X-19245180Y1488095D01*
X-19245180Y1773809D02*
X-20245180Y1773809D01*
X-20245180Y1773809D02*
X-20102323Y1678571D01*
X-20102323Y1678571D02*
X-20007085Y1583333D01*
X-20007085Y1583333D02*
X-19959466Y1488095D01*
X-20245180Y2392857D02*
X-20245180Y3059523D01*
X-20245180Y3059523D02*
X-19245180Y2630952D01*
X-11142857Y-18159580D02*
X-11190476Y-18207200D01*
X-11190476Y-18207200D02*
X-11333333Y-18254819D01*
X-11333333Y-18254819D02*
X-11428571Y-18254819D01*
X-11428571Y-18254819D02*
X-11571428Y-18207200D01*
X-11571428Y-18207200D02*
X-11666666Y-18111961D01*
X-11666666Y-18111961D02*
X-11714285Y-18016723D01*
X-11714285Y-18016723D02*
X-11761904Y-17826247D01*
X-11761904Y-17826247D02*
X-11761904Y-17683390D01*
X-11761904Y-17683390D02*
X-11714285Y-17492914D01*
X-11714285Y-17492914D02*
X-11666666Y-17397676D01*
X-11666666Y-17397676D02*
X-11571428Y-17302438D01*
X-11571428Y-17302438D02*
X-11428571Y-17254819D01*
X-11428571Y-17254819D02*
X-11333333Y-17254819D01*
X-11333333Y-17254819D02*
X-11190476Y-17302438D01*
X-11190476Y-17302438D02*
X-11142857Y-17350057D01*
X-10190476Y-18254819D02*
X-10761904Y-18254819D01*
X-10476190Y-18254819D02*
X-10476190Y-17254819D01*
X-10476190Y-17254819D02*
X-10571428Y-17397676D01*
X-10571428Y-17397676D02*
X-10666666Y-17492914D01*
X-10666666Y-17492914D02*
X-10761904Y-17540533D01*
X-9857142Y-17254819D02*
X-9238095Y-17254819D01*
X-9238095Y-17254819D02*
X-9571428Y-17635771D01*
X-9571428Y-17635771D02*
X-9428571Y-17635771D01*
X-9428571Y-17635771D02*
X-9333333Y-17683390D01*
X-9333333Y-17683390D02*
X-9285714Y-17731009D01*
X-9285714Y-17731009D02*
X-9238095Y-17826247D01*
X-9238095Y-17826247D02*
X-9238095Y-18064342D01*
X-9238095Y-18064342D02*
X-9285714Y-18159580D01*
X-9285714Y-18159580D02*
X-9333333Y-18207200D01*
X-9333333Y-18207200D02*
X-9428571Y-18254819D01*
X-9428571Y-18254819D02*
X-9714285Y-18254819D01*
X-9714285Y-18254819D02*
X-9809523Y-18207200D01*
X-9809523Y-18207200D02*
X-9857142Y-18159580D01*
D12*
%TO.C,R5*%
X-20872500Y38324758D02*
X-20872500Y37850242D01*
X-19827500Y38324758D02*
X-19827500Y37850242D01*
%TO.C,LED32*%
X-431416Y73412082D02*
X3168271Y73364583D01*
X-389194Y76611804D02*
X3210492Y76564304D01*
X3168271Y73364583D02*
X3210492Y76564304D01*
%TO.C,R3*%
X-17475242Y41335000D02*
X-17949758Y41335000D01*
X-17475242Y40290000D02*
X-17949758Y40290000D01*
%TO.C,LED34*%
X49138636Y54542776D02*
X51766833Y52082577D01*
X51325479Y56878952D02*
X53953676Y54418753D01*
X51766833Y52082577D02*
X53953676Y54418753D01*
%TO.C,LED3*%
X-19426986Y-20832480D02*
X-21422133Y-23334357D01*
X-18607522Y-25578899D02*
X-21422133Y-23334357D01*
X-16612374Y-23077024D02*
X-19426986Y-20832480D01*
%TO.C,R14*%
X-7227742Y-18802500D02*
X-7702258Y-18802500D01*
X-7227742Y-19847500D02*
X-7702258Y-19847500D01*
%TO.C,LED25*%
X-41315506Y-60707735D02*
X-43035854Y-63405957D01*
X-40000354Y-65341347D02*
X-43035854Y-63405957D01*
X-38280006Y-62643125D02*
X-41315506Y-60707735D01*
%TO.C,U4*%
X-8800000Y-13425000D02*
X-8800000Y-11475000D01*
X-8800000Y-13425000D02*
X-8800000Y-15375000D01*
X-3530000Y-13425000D02*
X-3530000Y-11475000D01*
X-3530000Y-13425000D02*
X-3530000Y-15375000D01*
X-8630000Y-16125000D02*
X-8960000Y-16365000D01*
X-8960000Y-15885000D01*
X-8630000Y-16125000D01*
G36*
X-8630000Y-16125000D02*
G01*
X-8960000Y-16365000D01*
X-8960000Y-15885000D01*
X-8630000Y-16125000D01*
G37*
%TO.C,D3*%
X-8530000Y-22285000D02*
X-5845000Y-22285000D01*
X-5845000Y-20365000D02*
X-8530000Y-20365000D01*
X-5845000Y-22285000D02*
X-5845000Y-20365000D01*
%TO.C,R4*%
X11984532Y-17826203D02*
X14324130Y-15863047D01*
X13732916Y-19909845D02*
X16072514Y-17946689D01*
%TO.C,R15*%
X-20022500Y-4562742D02*
X-20022500Y-5037258D01*
X-18977500Y-4562742D02*
X-18977500Y-5037258D01*
%TO.C,U1*%
X-19360000Y37975000D02*
X-19360000Y38625000D01*
X-19360000Y37975000D02*
X-19360000Y37325000D01*
X-16240000Y37975000D02*
X-16240000Y38625000D01*
X-16240000Y37975000D02*
X-16240000Y37325000D01*
X-15960000Y38897500D02*
X-16290000Y39137500D01*
X-15960000Y39377500D01*
X-15960000Y38897500D01*
G36*
X-15960000Y38897500D02*
G01*
X-16290000Y39137500D01*
X-15960000Y39377500D01*
X-15960000Y38897500D01*
G37*
%TO.C,LED8*%
X48505975Y15490009D02*
X47316953Y18887984D01*
X50337374Y19944892D02*
X47316953Y18887984D01*
X51526397Y16546918D02*
X50337374Y19944892D01*
%TO.C,R10*%
X-5597500Y-20362258D02*
X-5597500Y-19887742D01*
X-4552500Y-20362258D02*
X-4552500Y-19887742D01*
%TO.C,LED2*%
X4174682Y-28177509D02*
X4886742Y-31297280D01*
X7684426Y-27376442D02*
X4174682Y-28177509D01*
X8396485Y-30496215D02*
X4886742Y-31297280D01*
%TO.C,C2*%
X-2200000Y47482500D02*
X2800000Y47482500D01*
X-2200000Y34242500D02*
X-2200000Y47482500D01*
X2800000Y47482500D02*
X2800000Y34242500D01*
X2800000Y34242500D02*
X-2200000Y34242500D01*
%TO.C,R7*%
X6962258Y-6062500D02*
X6487742Y-6062500D01*
X6962258Y-7107500D02*
X6487742Y-7107500D01*
%TO.C,LED20*%
X69696639Y-23125284D02*
X72762647Y-24041573D01*
X70727464Y-19676022D02*
X69696639Y-23125284D01*
X73793473Y-20592312D02*
X72762647Y-24041573D01*
%TO.C,DB2*%
X-13635000Y45162500D02*
X-13635000Y44372500D01*
X-13635000Y42552500D02*
X-13635000Y39272500D01*
X-13635000Y37452500D02*
X-13635000Y36662500D01*
X-13635000Y36662500D02*
X-7065000Y36662500D01*
X-13625000Y45162500D02*
X-7075000Y45162500D01*
X-7065000Y44372500D02*
X-7065000Y45162500D01*
X-7065000Y42552500D02*
X-7065000Y39272500D01*
X-7065000Y36662500D02*
X-7065000Y37452500D01*
X-14562500Y44372500D02*
X-14842500Y44372500D01*
X-14562500Y44652500D01*
X-14562500Y44372500D01*
G36*
X-14562500Y44372500D02*
G01*
X-14842500Y44372500D01*
X-14562500Y44652500D01*
X-14562500Y44372500D01*
G37*
%TO.C,C10*%
X-4465580Y-17340000D02*
X-4184420Y-17340000D01*
X-4465580Y-18360000D02*
X-4184420Y-18360000D01*
%TO.C,J2*%
X-18330000Y-1270000D02*
X-18330000Y3920000D01*
X-15570000Y3920000D02*
X-18330000Y3920000D01*
X-15570000Y-1270000D02*
X-18330000Y-1270000D01*
X-15570000Y-1270000D02*
X-15570000Y3920000D01*
X-15570000Y-2540000D02*
X-15570000Y-3920000D01*
X-15570000Y-3920000D02*
X-16950000Y-3920000D01*
%TO.C,LED36*%
X73059132Y7203038D02*
X73343961Y3614323D01*
X73343961Y3614323D02*
X76533931Y3867509D01*
X76249097Y7456224D02*
X76533931Y3867509D01*
%TO.C,R13*%
X-4097500Y-19887742D02*
X-4097500Y-20362258D01*
X-3052500Y-19887742D02*
X-3052500Y-20362258D01*
%TO.C,LED1*%
X24633042Y-14304307D02*
X27516150Y-15692720D01*
X26195008Y-11060809D02*
X24633042Y-14304307D01*
X29078116Y-12449223D02*
X27516150Y-15692720D01*
%TO.C,C3*%
X-20910000Y12510000D02*
X-20910000Y10160000D01*
X-20910000Y5690000D02*
X-20910000Y8040000D01*
X-15154437Y12510001D02*
X-20910000Y12510000D01*
X-15154437Y5689999D02*
X-20910000Y5690000D01*
X-14089999Y11445563D02*
X-15154437Y12510001D01*
X-14089999Y11445563D02*
X-14090000Y10160000D01*
X-14089999Y6754437D02*
X-15154437Y5689999D01*
X-14089999Y6754437D02*
X-14090000Y8040000D01*
X-13456250Y6858750D02*
X-13456249Y7646250D01*
X-13062500Y7252500D02*
X-13850000Y7252500D01*
%TO.C,LED24*%
X-16595986Y-71533022D02*
X-17225478Y-74670495D01*
X-13695820Y-75378674D02*
X-17225478Y-74670495D01*
X-13066328Y-72241201D02*
X-16595986Y-71533022D01*
%TO.C,U3*%
X1775000Y-11375000D02*
X1775000Y-9425000D01*
X1775000Y-11375000D02*
X1775000Y-13325000D01*
X6895000Y-11375000D02*
X6895000Y-9425000D01*
X6895000Y-11375000D02*
X6895000Y-13325000D01*
X1870000Y-14075000D02*
X1540000Y-14315000D01*
X1540000Y-13835000D01*
X1870000Y-14075000D01*
G36*
X1870000Y-14075000D02*
G01*
X1540000Y-14315000D01*
X1540000Y-13835000D01*
X1870000Y-14075000D01*
G37*
%TO.C,C7*%
X-18697500Y-9090000D02*
X-18697500Y-10790000D01*
X-18697500Y-14610000D02*
X-18697500Y-12910000D01*
X-14241937Y-9090000D02*
X-18697500Y-9090000D01*
X-14241937Y-14610000D02*
X-18697500Y-14610000D01*
X-13177500Y-10154437D02*
X-14241937Y-9090000D01*
X-13177500Y-10154437D02*
X-13177500Y-10790000D01*
X-13177500Y-13545563D02*
X-14241937Y-14610000D01*
X-13177500Y-13545563D02*
X-13177500Y-12910000D01*
X-12625000Y-13847500D02*
X-12625000Y-13222500D01*
X-12312500Y-13535000D02*
X-12937500Y-13535000D01*
%TO.C,LED11*%
X-19944892Y50337374D02*
X-18887984Y47316953D01*
X-16546919Y51526396D02*
X-19944892Y50337374D01*
X-15490009Y48505975D02*
X-18887984Y47316953D01*
%TO.C,JP2*%
X-11600000Y-930000D02*
X-11600000Y-1880000D01*
X-11600000Y-6670000D02*
X-11600000Y-5720000D01*
X-12520000Y-5720000D02*
X-10680000Y-5720000D01*
X-10680000Y-1880000D01*
X-12520000Y-1880000D01*
X-12520000Y-5720000D01*
%TO.C,C8*%
X1790000Y-16459420D02*
X1790000Y-16740580D01*
X2810000Y-16459420D02*
X2810000Y-16740580D01*
%TO.C,LED4*%
X-31600000Y-1400001D02*
X-31600000Y2200000D01*
X-28400000Y2200000D02*
X-31600000Y2200000D01*
X-28399999Y-1400001D02*
X-28400000Y2200000D01*
%TO.C,LED7*%
X24980146Y13583531D02*
X26542112Y10340032D01*
X26542112Y10340032D02*
X29425219Y11728449D01*
X27863255Y14971944D02*
X29425219Y11728449D01*
%TO.C,LED5*%
X-20796665Y23833145D02*
X-17982054Y26077687D01*
X-18801516Y21331268D02*
X-15986905Y23575811D01*
X-15986905Y23575811D02*
X-17982054Y26077687D01*
D13*
%TO.C,D1*%
X17025200Y-11204900D02*
X20174800Y-11204900D01*
X20174800Y-8995100D02*
X17025200Y-8995100D01*
D12*
%TO.C,LED16*%
X-11433148Y-52896627D02*
X-7895902Y-53565892D01*
X-10838245Y-49752411D02*
X-7301003Y-50421676D01*
X-7895902Y-53565892D02*
X-7301003Y-50421676D01*
%TO.C,JP7*%
X-15585962Y32699204D02*
X-14319279Y29641163D01*
X-10549847Y20540949D02*
X-11816529Y23598990D01*
X-10550814Y24123266D02*
X-13082244Y23074713D01*
X-15584994Y29116885D01*
X-13053564Y30165439D01*
X-10550814Y24123266D01*
%TO.C,R6*%
X6962258Y-4562500D02*
X6487742Y-4562500D01*
X6962258Y-5607500D02*
X6487742Y-5607500D01*
%TO.C,LED17*%
X15490009Y-48505975D02*
X18887984Y-47316953D01*
X16546918Y-51526397D02*
X19944892Y-50337374D01*
X19944892Y-50337374D02*
X18887984Y-47316953D01*
%TO.C,LED27*%
X-73580821Y-21339700D02*
X-74520215Y-17864424D01*
X-71431081Y-17029407D02*
X-74520215Y-17864424D01*
X-70491686Y-20504683D02*
X-71431081Y-17029407D01*
%TO.C,R2*%
X-4072936Y47410000D02*
X-5527064Y47410000D01*
X-4072936Y45590000D02*
X-5527064Y45590000D01*
%TO.C,C5*%
X5940580Y-15340000D02*
X5659420Y-15340000D01*
X5940580Y-16360000D02*
X5659420Y-16360000D01*
%TO.C,LED29*%
X-68753310Y33800921D02*
X-67106249Y37002044D01*
X-65907868Y32336867D02*
X-64260806Y35537990D01*
X-64260806Y35537990D02*
X-67106249Y37002044D01*
%TO.C,LED21*%
X56636747Y-46740548D02*
X59164729Y-48702512D01*
X58843957Y-43896567D02*
X56636747Y-46740548D01*
X61371940Y-45858531D02*
X59164729Y-48702512D01*
%TO.C,R11*%
X-5952742Y-5447500D02*
X-6427258Y-5447500D01*
X-5952742Y-6492500D02*
X-6427258Y-6492500D01*
%TO.C,LED30*%
X-51900714Y56354555D02*
X-49208516Y58744548D01*
X-49776276Y53961490D02*
X-47084077Y56351484D01*
X-47084077Y56351484D02*
X-49208516Y58744548D01*
%TO.C,LED15*%
X-36349710Y-40093249D02*
X-33621000Y-42441470D01*
X-34262402Y-37667729D02*
X-31533692Y-40015950D01*
X-33621000Y-42441470D02*
X-31533692Y-40015950D01*
%TO.C,C1*%
X11350000Y12450000D02*
X12650000Y12450000D01*
X12000000Y11800000D02*
X12000000Y13100000D01*
D11*
X-11250000Y7950000D02*
X-9600000Y7950000D01*
X-9000000Y7950000D02*
X-7350000Y7950000D01*
X-6750000Y7950000D02*
X-5100000Y7950000D01*
X-4500000Y7950000D02*
X-2850000Y7950000D01*
X-2250000Y7950000D02*
X-600000Y7950000D01*
X0Y7950000D02*
X1650000Y7950000D01*
X2250000Y7950000D02*
X3900000Y7950000D01*
X4500000Y7950000D02*
X6150000Y7950000D01*
X6750000Y7950000D02*
X8400000Y7950000D01*
X9000000Y7950000D02*
X10650000Y7950000D01*
X11250000Y7950000D02*
X12900000Y7950000D01*
X13500000Y7950000D02*
X13500000Y7950000D01*
X13500000Y7950000D02*
X13500000Y9600000D01*
X13500000Y10200000D02*
X13500000Y11850000D01*
X13500000Y12450000D02*
X13500000Y14100000D01*
X13500000Y14700000D02*
X13500000Y16350000D01*
X13500000Y16950000D02*
X13500000Y18450000D01*
X13500000Y18450000D02*
X11850000Y18450000D01*
X11250000Y18450000D02*
X9600000Y18450000D01*
X9000000Y18450000D02*
X7350000Y18450000D01*
X6750000Y18450000D02*
X5100000Y18450000D01*
X4500000Y18450000D02*
X2850000Y18450000D01*
X2250000Y18450000D02*
X600000Y18450000D01*
X0Y18450000D02*
X-1650000Y18450000D01*
X-2250000Y18450000D02*
X-3900000Y18450000D01*
X-4500000Y18450000D02*
X-6150000Y18450000D01*
X-6750000Y18450000D02*
X-8400000Y18450000D01*
X-9000000Y18450000D02*
X-10650000Y18450000D01*
X-11250000Y18450000D02*
X-11250000Y18450000D01*
X-11250000Y18450000D02*
X-11250000Y16800000D01*
X-11250000Y16200000D02*
X-11250000Y14550000D01*
X-11250000Y13950000D02*
X-11250000Y12300000D01*
X-11250000Y11700000D02*
X-11250000Y10050000D01*
X-11250000Y9450000D02*
X-11250000Y7950000D01*
D12*
%TO.C,LED31*%
X-28037703Y71298017D02*
X-24663926Y72554054D01*
X-26921226Y68299105D02*
X-23547449Y69555141D01*
X-23547449Y69555141D02*
X-24663926Y72554054D01*
%TO.C,LED19*%
X49752411Y-10838245D02*
X50421676Y-7301002D01*
X52896627Y-11433148D02*
X53565892Y-7895902D01*
X53565892Y-7895902D02*
X50421676Y-7301002D01*
%TO.C,JP4*%
X-14100000Y3570000D02*
X-14100000Y2620000D01*
X-14100000Y-2170000D02*
X-14100000Y-1220000D01*
X-15020000Y-1220000D02*
X-13180000Y-1220000D01*
X-13180000Y2620000D01*
X-15020000Y2620000D01*
X-15020000Y-1220000D01*
%TO.C,C15*%
X-10580580Y3510000D02*
X-10299420Y3510000D01*
X-10580580Y2490000D02*
X-10299420Y2490000D01*
%TO.C,D2*%
X1915000Y-5662500D02*
X1915000Y-5012500D01*
X1915000Y-5662500D02*
X1915000Y-6312500D01*
X5035000Y-5662500D02*
X5035000Y-5012500D01*
X5035000Y-5662500D02*
X5035000Y-6312500D01*
X1965000Y-6825000D02*
X1635000Y-7065000D01*
X1635000Y-6585000D01*
X1965000Y-6825000D01*
G36*
X1965000Y-6825000D02*
G01*
X1635000Y-7065000D01*
X1635000Y-6585000D01*
X1965000Y-6825000D01*
G37*
%TO.C,LED10*%
X7895902Y53565892D02*
X7301003Y50421676D01*
X10838245Y49752411D02*
X7301003Y50421676D01*
X11433147Y52896626D02*
X7895902Y53565892D01*
%TO.C,LED22*%
X35926969Y-64044147D02*
X37575474Y-66786854D01*
X39012513Y-62189579D02*
X35926969Y-64044147D01*
X40661017Y-64932286D02*
X37575474Y-66786854D01*
%TO.C,JP6*%
X9172415Y20622168D02*
X11300043Y23157776D01*
X17631500Y30703315D02*
X15503873Y28167707D01*
X16553355Y27287086D02*
X12349524Y22277157D01*
X10250562Y24038395D01*
X14454394Y29048325D01*
X16553355Y27287086D01*
%TO.C,U5*%
X-9060000Y25000D02*
X-9060000Y1975000D01*
X-9060000Y25000D02*
X-9060000Y-1925000D01*
X-3940000Y25000D02*
X-3940000Y1975000D01*
X-3940000Y25000D02*
X-3940000Y-1925000D01*
X-3705000Y2485000D02*
X-4035000Y2725000D01*
X-3705000Y2965000D01*
X-3705000Y2485000D01*
G36*
X-3705000Y2485000D02*
G01*
X-4035000Y2725000D01*
X-3705000Y2965000D01*
X-3705000Y2485000D01*
G37*
%TO.C,U2*%
X-16837500Y-5690000D02*
X-17487500Y-5690000D01*
X-16837500Y-5690000D02*
X-16187500Y-5690000D01*
X-16837500Y-8810000D02*
X-17487500Y-8810000D01*
X-16837500Y-8810000D02*
X-16187500Y-8810000D01*
X-15435000Y-9090000D02*
X-15915000Y-9090000D01*
X-15675000Y-8760000D01*
X-15435000Y-9090000D01*
G36*
X-15435000Y-9090000D02*
G01*
X-15915000Y-9090000D01*
X-15675000Y-8760000D01*
X-15435000Y-9090000D01*
G37*
%TO.C,R1*%
X19672936Y37210000D02*
X21127064Y37210000D01*
X19672936Y35390000D02*
X21127064Y35390000D01*
%TO.C,LED26*%
X-60902854Y-46479698D02*
X-63034254Y-43578468D01*
X-60455382Y-41683890D02*
X-63034254Y-43578468D01*
X-58323982Y-44585120D02*
X-60455382Y-41683890D01*
%TO.C,C16*%
X-3510000Y165580D02*
X-3510000Y-115580D01*
X-2490000Y165580D02*
X-2490000Y-115580D01*
%TO.C,JP1*%
X-21800000Y1460000D02*
X-21800000Y510000D01*
X-21800000Y-4280000D02*
X-21800000Y-3330000D01*
X-22720000Y-3330000D02*
X-20880000Y-3330000D01*
X-20880000Y510000D01*
X-22720000Y510000D01*
X-22720000Y-3330000D01*
%TO.C,JP5*%
X37100000Y17747751D02*
X37100000Y13247751D01*
X37100000Y-492249D02*
X37100000Y4007751D01*
X35380000Y4007751D02*
X38820000Y4007751D01*
X38820000Y13247751D01*
X35380000Y13247751D01*
X35380000Y4007751D01*
%TO.C,R9*%
X6037258Y-16877500D02*
X5562742Y-16877500D01*
X6037258Y-17922500D02*
X5562742Y-17922500D01*
%TO.C,LED18*%
X37667729Y-34262402D02*
X40015950Y-31533692D01*
X40093249Y-36349710D02*
X42441470Y-33621000D01*
X42441470Y-33621000D02*
X40015950Y-31533692D01*
%TO.C,R8*%
X6037258Y-18477500D02*
X5562742Y-18477500D01*
X6037258Y-19522500D02*
X5562742Y-19522500D01*
%TO.C,JP8*%
X-12702010Y33939166D02*
X-11435327Y30881125D01*
X-7665895Y21780911D02*
X-8932577Y24838952D01*
X-7666862Y25363228D02*
X-10198291Y24314676D01*
X-12701042Y30356847D01*
X-10169613Y31405402D01*
X-7666862Y25363228D01*
%TO.C,L1*%
X9100000Y-6100000D02*
X9100000Y6100000D01*
X9500000Y6500000D02*
X11850000Y6500000D01*
X9500000Y-6500000D02*
X11850000Y-6500000D01*
X11850000Y-6500000D02*
X11850000Y-7250000D01*
X19350000Y6500000D02*
X21700000Y6500000D01*
X19350000Y-6500000D02*
X21700000Y-6500000D01*
X22100000Y6100000D02*
X22100000Y-6100000D01*
X9100000Y6100000D02*
G75*
G02*
X9500000Y6500000I400000J0D01*
G01*
X9500000Y-6500000D02*
G75*
G02*
X9100000Y-6100000I-1J399999D01*
G01*
X21700000Y6500000D02*
G75*
G02*
X22100000Y6100000I0J-400000D01*
G01*
X22100000Y-6100000D02*
G75*
G02*
X21700000Y-6500000I-399999J-1D01*
G01*
%TO.C,JP3*%
X-1860000Y-2600000D02*
X-910000Y-2600000D01*
X3880000Y-2600000D02*
X2930000Y-2600000D01*
X-910000Y-1680000D02*
X2930000Y-1680000D01*
X2930000Y-3520000D01*
X-910000Y-3520000D01*
X-910000Y-1680000D01*
%TO.C,C11*%
X-10210000Y-11384420D02*
X-10210000Y-11665580D01*
X-9190000Y-11384420D02*
X-9190000Y-11665580D01*
%TO.C,LED12*%
X-42441470Y33621000D02*
X-40015950Y31533692D01*
X-40093249Y36349710D02*
X-42441470Y33621000D01*
X-37667730Y34262401D02*
X-40015950Y31533692D01*
%TO.C,C4*%
X-111252Y-7465000D02*
X411252Y-7465000D01*
X-111252Y-8935000D02*
X411252Y-8935000D01*
%TO.C,C6*%
X-20572500Y-8088748D02*
X-20572500Y-8611252D01*
X-19102500Y-8088748D02*
X-19102500Y-8611252D01*
%TO.C,LED6*%
X4954625Y27999493D02*
X8464368Y27198428D01*
X5666685Y31119265D02*
X9176427Y30318199D01*
X8464368Y27198428D02*
X9176427Y30318199D01*
%TO.C,LED33*%
X26117854Y68610333D02*
X29457290Y67265653D01*
X27313125Y71578721D02*
X30652561Y70234041D01*
X29457290Y67265653D02*
X30652561Y70234041D01*
%TO.C,C9*%
X-6049420Y-8460000D02*
X-6330580Y-8460000D01*
X-6049420Y-9480000D02*
X-6330580Y-9480000D01*
%TO.C,C12*%
X-11710000Y-11384420D02*
X-11710000Y-11665580D01*
X-10690000Y-11384420D02*
X-10690000Y-11665580D01*
%TO.C,LED13*%
X-53565892Y7895902D02*
X-50421676Y7301003D01*
X-52896627Y11433148D02*
X-53565892Y7895902D01*
X-49752413Y10838246D02*
X-50421676Y7301003D01*
%TO.C,J1*%
X-12580000Y4120000D02*
X-12580000Y5500000D01*
X-11200000Y4120000D02*
X-12580000Y4120000D01*
X-9930000Y6880000D02*
X-2200000Y6880000D01*
X-9930000Y4120000D02*
X-9930000Y6880000D01*
X-9930000Y4120000D02*
X-2200000Y4120000D01*
X-2200000Y4120000D02*
X-2200000Y6880000D01*
%TO.C,C14*%
X-2010000Y165580D02*
X-2010000Y-115580D01*
X-990000Y165580D02*
X-990000Y-115580D01*
%TO.C,LED28*%
X-76320915Y6681155D02*
X-75941489Y10261104D01*
X-73138738Y6343886D02*
X-72759312Y9923836D01*
X-72759312Y9923836D02*
X-75941489Y10261104D01*
%TO.C,R12*%
X-5952742Y-6947500D02*
X-6427258Y-6947500D01*
X-5952742Y-7992500D02*
X-6427258Y-7992500D01*
%TO.C,LED35*%
X65523842Y33108097D02*
X67085808Y29864600D01*
X67085808Y29864600D02*
X69968915Y31253014D01*
X68406951Y34496510D02*
X69968915Y31253014D01*
%TO.C,DB1*%
X9328978Y43100000D02*
X9328978Y42310000D01*
X9328978Y37210000D02*
X9328978Y40490000D01*
X9328978Y35390000D02*
X9328978Y34600000D01*
X15888978Y34600000D02*
X9338978Y34600000D01*
X15898978Y43100000D02*
X9328978Y43100000D01*
X15898978Y42310000D02*
X15898978Y43100000D01*
X15898978Y37210000D02*
X15898978Y40490000D01*
X15898978Y34600000D02*
X15898978Y35390000D01*
X16826478Y35110000D02*
X16826478Y35390000D01*
X17106478Y35390000D01*
X16826478Y35110000D01*
G36*
X16826478Y35110000D02*
G01*
X16826478Y35390000D01*
X17106478Y35390000D01*
X16826478Y35110000D01*
G37*
D10*
%TO.C,RV1*%
X3113978Y43350000D02*
X7113978Y43350000D01*
X3113978Y34350000D02*
X3113978Y43350000D01*
X7113978Y43350000D02*
X7113978Y34350000D01*
X7113978Y34350000D02*
X3113978Y34350000D01*
D12*
%TO.C,LED14*%
X-51526397Y-16546918D02*
X-50337374Y-19944892D01*
X-50337374Y-19944892D02*
X-47316953Y-18887984D01*
X-48505975Y-15490009D02*
X-47316953Y-18887984D01*
%TO.C,Q1*%
X9600000Y-7540000D02*
X13360000Y-7540000D01*
X9600000Y-14360000D02*
X13360000Y-14360000D01*
X13360000Y-7540000D02*
X13360000Y-8800000D01*
X13360000Y-14360000D02*
X13360000Y-13100000D01*
X8320000Y-7640000D02*
X8080000Y-7310000D01*
X8560000Y-7310000D01*
X8320000Y-7640000D01*
G36*
X8320000Y-7640000D02*
G01*
X8080000Y-7310000D01*
X8560000Y-7310000D01*
X8320000Y-7640000D01*
G37*
%TO.C,LED23*%
X10366083Y-72697622D02*
X10912515Y-75850623D01*
X13913209Y-72082887D02*
X10366083Y-72697622D01*
X14459641Y-75235890D02*
X10912515Y-75850623D01*
%TO.C,LED9*%
X33621000Y42441470D02*
X31533692Y40015950D01*
X34262402Y37667729D02*
X31533692Y40015950D01*
X36349710Y40093249D02*
X33621000Y42441470D01*
%TO.C,C17*%
X-20435000Y-1811252D02*
X-20435000Y-1288748D01*
X-18965000Y-1811252D02*
X-18965000Y-1288748D01*
%TO.C,C13*%
X-7324420Y-17340000D02*
X-7605580Y-17340000D01*
X-7324420Y-18360000D02*
X-7605580Y-18360000D01*
%TD*%
%LPC*%
D14*
%TO.C,R5*%
X-20350000Y38912500D03*
X-20350000Y37262500D03*
%TD*%
D15*
%TO.C,LED32*%
X1889495Y74981596D03*
D16*
X-385307Y75011613D03*
%TD*%
D17*
%TO.C,R3*%
X-16887500Y40812500D03*
X-18537500Y40812500D03*
%TD*%
D18*
%TO.C,LED34*%
X51911183Y54139070D03*
D19*
X50250308Y55693779D03*
%TD*%
D20*
%TO.C,LED3*%
X-19408172Y-22893948D03*
D21*
X-17629494Y-24312374D03*
%TD*%
D17*
%TO.C,R14*%
X-6640000Y-19325000D03*
X-8290000Y-19325000D03*
%TD*%
D22*
%TO.C,LED25*%
X-41079527Y-62755736D03*
D23*
X-39161260Y-63978796D03*
%TD*%
D24*
%TO.C,U4*%
X-8070000Y-16100000D03*
X-6800000Y-16100000D03*
X-5530000Y-16100000D03*
X-4260000Y-16100000D03*
X-4260000Y-10750000D03*
X-5530000Y-10750000D03*
X-6800000Y-10750000D03*
X-8070000Y-10750000D03*
%TD*%
D25*
%TO.C,D3*%
X-6592500Y-21325000D03*
X-8467500Y-21325000D03*
%TD*%
D26*
%TO.C,R4*%
X12257046Y-19372892D03*
X15800000Y-16400000D03*
%TD*%
D14*
%TO.C,R15*%
X-19500000Y-3975000D03*
X-19500000Y-5625000D03*
%TD*%
D27*
%TO.C,U1*%
X-16850000Y38912500D03*
X-18750000Y38912500D03*
X-17800000Y37037500D03*
%TD*%
D28*
%TO.C,LED8*%
X49256534Y18189392D03*
D29*
X50007928Y16042058D03*
%TD*%
D30*
%TO.C,R10*%
X-5075000Y-20950000D03*
X-5075000Y-19300000D03*
%TD*%
D31*
%TO.C,LED2*%
X5798120Y-29448122D03*
D32*
X8016082Y-28941891D03*
%TD*%
D33*
%TO.C,C2*%
X300000Y35862500D03*
X300000Y45862500D03*
%TD*%
D17*
%TO.C,R7*%
X7550000Y-6585000D03*
X5900000Y-6585000D03*
%TD*%
D34*
%TO.C,LED20*%
X71601884Y-22337861D03*
D35*
X72253310Y-20158121D03*
%TD*%
D36*
%TO.C,DB2*%
X-14800000Y43462500D03*
X-14800000Y38362500D03*
X-5900000Y38362500D03*
X-5900000Y43462500D03*
%TD*%
D37*
%TO.C,C10*%
X-5100000Y-17850000D03*
X-3550000Y-17850000D03*
%TD*%
D38*
%TO.C,J2*%
X-16950000Y-2540000D03*
D39*
X-16950000Y0D03*
X-16950000Y2540000D03*
%TD*%
D40*
%TO.C,LED36*%
X74836089Y5036840D03*
D41*
X74656091Y7304704D03*
%TD*%
D14*
%TO.C,R13*%
X-3575000Y-19300000D03*
X-3575000Y-20950000D03*
%TD*%
D42*
%TO.C,LED1*%
X26638639Y-13827252D03*
D43*
X27625716Y-11777542D03*
%TD*%
D44*
%TO.C,C3*%
X-14800000Y9100000D03*
X-20200000Y9100000D03*
%TD*%
D45*
%TO.C,LED24*%
X-15636133Y-73357490D03*
D46*
X-13405586Y-73805020D03*
%TD*%
D47*
%TO.C,U3*%
X2430000Y-13850000D03*
X3700000Y-13850000D03*
X4970000Y-13850000D03*
X6240000Y-13850000D03*
X6240000Y-8900000D03*
X4970000Y-8900000D03*
X3700000Y-8900000D03*
X2430000Y-8900000D03*
%TD*%
D48*
%TO.C,C7*%
X-13737500Y-11850000D03*
X-18137500Y-11850000D03*
%TD*%
D49*
%TO.C,LED11*%
X-18189392Y49256534D03*
D50*
X-16042061Y50007928D03*
%TD*%
D51*
%TO.C,JP2*%
X-11600000Y-7610000D03*
X-11600000Y10000D03*
%TD*%
D52*
%TO.C,C8*%
X2300000Y-15825000D03*
X2300000Y-17375000D03*
%TD*%
D53*
%TO.C,LED4*%
X-30000000Y899999D03*
D54*
X-30000000Y-1375000D03*
%TD*%
D55*
%TO.C,LED7*%
X27419622Y12205503D03*
D56*
X26432547Y14255212D03*
%TD*%
D57*
%TO.C,LED5*%
X-18000866Y24016220D03*
D58*
X-19779544Y22597794D03*
%TD*%
D59*
%TO.C,D1*%
X20403400Y-10100000D03*
X16796600Y-10100000D03*
%TD*%
D60*
%TO.C,LED16*%
X-8875791Y-51752105D03*
D61*
X-11111132Y-51329167D03*
%TD*%
D62*
%TO.C,JP7*%
X-15983952Y33660038D03*
X-10151856Y19580114D03*
%TD*%
D17*
%TO.C,R6*%
X7550000Y-5085000D03*
X5900000Y-5085000D03*
%TD*%
D63*
%TO.C,LED17*%
X18189392Y-49256534D03*
D64*
X16042061Y-50007928D03*
%TD*%
D65*
%TO.C,LED27*%
X-72636422Y-18701876D03*
D66*
X-72042778Y-20898056D03*
%TD*%
D67*
%TO.C,R2*%
X-3337500Y46500000D03*
X-6262500Y46500000D03*
%TD*%
D68*
%TO.C,C5*%
X6575000Y-15850000D03*
X5025000Y-15850000D03*
%TD*%
D69*
%TO.C,LED29*%
X-66278300Y35114056D03*
D70*
X-67319151Y33091124D03*
%TD*%
D71*
%TO.C,LED21*%
X58697786Y-46694537D03*
D72*
X60092621Y-44897300D03*
%TD*%
D17*
%TO.C,R11*%
X-5365000Y-5970000D03*
X-7015000Y-5970000D03*
%TD*%
D73*
%TO.C,LED30*%
X-49118480Y56684963D03*
D74*
X-50819799Y55174619D03*
%TD*%
D75*
%TO.C,LED15*%
X-33562714Y-40380741D03*
D76*
X-35287108Y-38896795D03*
%TD*%
D77*
%TO.C,C1*%
X12000000Y10700000D03*
D33*
X12000000Y15700000D03*
%TD*%
D78*
%TO.C,LED31*%
X-25323996Y70601028D03*
D79*
X-27456035Y69807283D03*
%TD*%
D80*
%TO.C,LED19*%
X51752106Y-8875792D03*
D81*
X51329167Y-11111132D03*
%TD*%
D51*
%TO.C,JP4*%
X-14100000Y-3110000D03*
X-14100000Y4510000D03*
%TD*%
D37*
%TO.C,C15*%
X-11215000Y3000000D03*
X-9665000Y3000000D03*
%TD*%
D82*
%TO.C,D2*%
X2525000Y-6600000D03*
X4425000Y-6600000D03*
X3475000Y-4725000D03*
%TD*%
D83*
%TO.C,LED10*%
X8875791Y51752106D03*
D84*
X11111132Y51329167D03*
%TD*%
D85*
%TO.C,LED22*%
X37865445Y-64745795D03*
D86*
X39815337Y-63573811D03*
%TD*%
D62*
%TO.C,JP6*%
X8503916Y19825482D03*
X18300000Y31500000D03*
%TD*%
D87*
%TO.C,U5*%
X-4595000Y2500000D03*
X-5865000Y2500000D03*
X-7135000Y2500000D03*
X-8405000Y2500000D03*
X-8405000Y-2450000D03*
X-7135000Y-2450000D03*
X-5865000Y-2450000D03*
X-4595000Y-2450000D03*
%TD*%
D88*
%TO.C,U2*%
X-15900000Y-8200000D03*
X-15900000Y-6300000D03*
X-17775000Y-7250000D03*
%TD*%
D89*
%TO.C,R1*%
X18937500Y36300000D03*
X21862500Y36300000D03*
%TD*%
D90*
%TO.C,LED26*%
X-60975146Y-43678845D03*
D91*
X-59628220Y-45512262D03*
%TD*%
D52*
%TO.C,C16*%
X-3000000Y800000D03*
X-3000000Y-750000D03*
%TD*%
D51*
%TO.C,JP1*%
X-21800000Y-5220000D03*
X-21800000Y2400000D03*
%TD*%
D62*
%TO.C,JP5*%
X37100000Y-1532249D03*
X37100000Y18787751D03*
%TD*%
D17*
%TO.C,R9*%
X6625000Y-17400000D03*
X4975000Y-17400000D03*
%TD*%
D92*
%TO.C,LED18*%
X40380741Y-33562714D03*
D93*
X38896796Y-35287107D03*
%TD*%
D17*
%TO.C,R8*%
X6625000Y-19000000D03*
X4975000Y-19000000D03*
%TD*%
D62*
%TO.C,JP8*%
X-13100000Y34900000D03*
X-7267904Y20820075D03*
%TD*%
D94*
%TO.C,L1*%
X15600000Y-5250000D03*
X15600000Y5250000D03*
%TD*%
D51*
%TO.C,JP3*%
X-2800000Y-2600000D03*
X4820000Y-2600000D03*
%TD*%
D52*
%TO.C,C11*%
X-9700000Y-10750000D03*
X-9700000Y-12300000D03*
%TD*%
D95*
%TO.C,LED12*%
X-40380741Y33562714D03*
D96*
X-38896796Y35287107D03*
%TD*%
D97*
%TO.C,C4*%
X-800000Y-8200000D03*
X1100000Y-8200000D03*
%TD*%
D98*
%TO.C,C6*%
X-19837500Y-7400000D03*
X-19837500Y-9300000D03*
%TD*%
D99*
%TO.C,LED6*%
X7552991Y29047587D03*
D100*
X5335028Y29553817D03*
%TD*%
D101*
%TO.C,LED33*%
X28849018Y69235426D03*
D102*
X26738680Y70085189D03*
%TD*%
D68*
%TO.C,C9*%
X-5415000Y-8970000D03*
X-6965000Y-8970000D03*
%TD*%
D52*
%TO.C,C12*%
X-11200000Y-10750000D03*
X-11200000Y-12300000D03*
%TD*%
D103*
%TO.C,LED13*%
X-51752106Y8875791D03*
D104*
X-51329167Y11111132D03*
%TD*%
D38*
%TO.C,J1*%
X-11200000Y5500000D03*
D39*
X-8660000Y5500000D03*
X-6120000Y5500000D03*
X-3580000Y5500000D03*
%TD*%
D52*
%TO.C,C14*%
X-1500000Y800000D03*
X-1500000Y-750000D03*
%TD*%
D105*
%TO.C,LED28*%
X-74487415Y8799710D03*
D106*
X-74727192Y6537381D03*
%TD*%
D17*
%TO.C,R12*%
X-5365000Y-7470000D03*
X-7015000Y-7470000D03*
%TD*%
D55*
%TO.C,LED35*%
X67963318Y31730069D03*
D56*
X66976243Y33779778D03*
%TD*%
D36*
%TO.C,DB1*%
X17063978Y36300000D03*
X17063978Y41400000D03*
X8163978Y41400000D03*
X8163978Y36300000D03*
%TD*%
D62*
%TO.C,RV1*%
X4113978Y36350000D03*
X4113978Y41350000D03*
%TD*%
D107*
%TO.C,LED14*%
X-49256534Y-18189392D03*
D108*
X-50007928Y-16042061D03*
%TD*%
D109*
%TO.C,Q1*%
X14600000Y-10950000D03*
D110*
X8300000Y-8650000D03*
X8300000Y-13250000D03*
%TD*%
D111*
%TO.C,LED23*%
X11920206Y-74052135D03*
D112*
X14161792Y-73663656D03*
%TD*%
D113*
%TO.C,LED9*%
X33562714Y40380741D03*
D114*
X35287107Y38896796D03*
%TD*%
D115*
%TO.C,C17*%
X-19700000Y-2500000D03*
X-19700000Y-600000D03*
%TD*%
D68*
%TO.C,C13*%
X-6690000Y-17850000D03*
X-8240000Y-17850000D03*
%TD*%
%LPD*%
M02*
