%TF.GenerationSoftware,KiCad,Pcbnew,9.0.3*%
%TF.CreationDate,2026-02-16T17:36:19+03:00*%
%TF.ProjectId,NightGlow V0.1 PCB,4e696768-7447-46c6-9f77-2056302e3120,rev?*%
%TF.SameCoordinates,Original*%
%TF.FileFunction,Soldermask,Top*%
%TF.FilePolarity,Negative*%
%FSLAX46Y46*%
G04 Gerber Fmt 4.6, Leading zero omitted, Abs format (unit mm)*
G04 Created by KiCad (PCBNEW 9.0.3) date 2026-02-16 17:36:19*
%MOMM*%
%LPD*%
G01*
G04 APERTURE LIST*
G04 Aperture macros list*
%AMRoundRect*
0 Rectangle with rounded corners*
0 $1 Rounding radius*
0 $2 $3 $4 $5 $6 $7 $8 $9 X,Y pos of 4 corners*
0 Add a 4 corners polygon primitive as box body*
4,1,4,$2,$3,$4,$5,$6,$7,$8,$9,$2,$3,0*
0 Add four circle primitives for the rounded corners*
1,1,$1+$1,$2,$3*
1,1,$1+$1,$4,$5*
1,1,$1+$1,$6,$7*
1,1,$1+$1,$8,$9*
0 Add four rect primitives between the rounded corners*
20,1,$1+$1,$2,$3,$4,$5,0*
20,1,$1+$1,$4,$5,$6,$7,0*
20,1,$1+$1,$6,$7,$8,$9,0*
20,1,$1+$1,$8,$9,$2,$3,0*%
%AMRotRect*
0 Rectangle, with rotation*
0 The origin of the aperture is its center*
0 $1 length*
0 $2 width*
0 $3 Rotation angle, in degrees counterclockwise*
0 Add horizontal line*
21,1,$1,$2,0,0,$3*%
G04 Aperture macros list end*
%ADD10RoundRect,0.200000X-0.275000X0.200000X-0.275000X-0.200000X0.275000X-0.200000X0.275000X0.200000X0*%
%ADD11RotRect,2.200000X2.200000X179.244000*%
%ADD12RotRect,1.250000X2.200000X179.244000*%
%ADD13RoundRect,0.200000X0.200000X0.275000X-0.200000X0.275000X-0.200000X-0.275000X0.200000X-0.275000X0*%
%ADD14RotRect,2.200000X2.200000X136.891000*%
%ADD15RotRect,1.250000X2.200000X136.891000*%
%ADD16RotRect,2.200000X2.200000X321.429000*%
%ADD17RotRect,1.250000X2.200000X321.429000*%
%ADD18RotRect,2.200000X2.200000X327.479000*%
%ADD19RotRect,1.250000X2.200000X327.479000*%
%ADD20RoundRect,0.150000X0.150000X-0.625000X0.150000X0.625000X-0.150000X0.625000X-0.150000X-0.625000X0*%
%ADD21RoundRect,0.243750X0.243750X0.456250X-0.243750X0.456250X-0.243750X-0.456250X0.243750X-0.456250X0*%
%ADD22RoundRect,0.250000X0.413306X-1.056508X0.968688X-0.590487X-0.413306X1.056508X-0.968688X0.590487X0*%
%ADD23RoundRect,0.150000X-0.150000X0.587500X-0.150000X-0.587500X0.150000X-0.587500X0.150000X0.587500X0*%
%ADD24RotRect,2.200000X2.200000X289.286000*%
%ADD25RotRect,1.250000X2.200000X289.286000*%
%ADD26RoundRect,0.200000X0.275000X-0.200000X0.275000X0.200000X-0.275000X0.200000X-0.275000X-0.200000X0*%
%ADD27RotRect,2.200000X2.200000X12.857000*%
%ADD28RotRect,1.250000X2.200000X12.857000*%
%ADD29C,2.000000*%
%ADD30RotRect,2.200000X2.200000X73.361000*%
%ADD31RotRect,1.250000X2.200000X73.361000*%
%ADD32R,1.500000X1.300000*%
%ADD33RoundRect,0.225000X-0.225000X-0.250000X0.225000X-0.250000X0.225000X0.250000X-0.225000X0.250000X0*%
%ADD34R,1.700000X1.700000*%
%ADD35C,1.700000*%
%ADD36RotRect,2.200000X2.200000X94.538000*%
%ADD37RotRect,1.250000X2.200000X94.538000*%
%ADD38RotRect,2.200000X2.200000X64.286000*%
%ADD39RotRect,1.250000X2.200000X64.286000*%
%ADD40RoundRect,0.250000X1.500000X0.550000X-1.500000X0.550000X-1.500000X-0.550000X1.500000X-0.550000X0*%
%ADD41RotRect,2.200000X2.200000X348.655000*%
%ADD42RotRect,1.250000X2.200000X348.655000*%
%ADD43RoundRect,0.150000X0.150000X-0.825000X0.150000X0.825000X-0.150000X0.825000X-0.150000X-0.825000X0*%
%ADD44RoundRect,0.250000X1.250000X0.550000X-1.250000X0.550000X-1.250000X-0.550000X1.250000X-0.550000X0*%
%ADD45RotRect,2.200000X2.200000X19.286000*%
%ADD46RotRect,1.250000X2.200000X19.286000*%
%ADD47C,1.400000*%
%ADD48RoundRect,0.225000X-0.250000X0.225000X-0.250000X-0.225000X0.250000X-0.225000X0.250000X0.225000X0*%
%ADD49R,2.200000X2.200000*%
%ADD50R,2.200000X1.250000*%
%ADD51RotRect,2.200000X2.200000X115.714000*%
%ADD52RotRect,1.250000X2.200000X115.714000*%
%ADD53RotRect,2.200000X2.200000X218.571000*%
%ADD54RotRect,1.250000X2.200000X218.571000*%
%ADD55R,0.965200X1.244600*%
%ADD56RotRect,2.200000X2.200000X169.286000*%
%ADD57RotRect,1.250000X2.200000X169.286000*%
%ADD58C,1.600000*%
%ADD59RotRect,2.200000X2.200000X199.286000*%
%ADD60RotRect,1.250000X2.200000X199.286000*%
%ADD61RotRect,2.200000X2.200000X285.126000*%
%ADD62RotRect,1.250000X2.200000X285.126000*%
%ADD63RoundRect,0.250000X0.312500X0.625000X-0.312500X0.625000X-0.312500X-0.625000X0.312500X-0.625000X0*%
%ADD64RoundRect,0.225000X0.225000X0.250000X-0.225000X0.250000X-0.225000X-0.250000X0.225000X-0.250000X0*%
%ADD65RotRect,2.200000X2.200000X242.773000*%
%ADD66RotRect,1.250000X2.200000X242.773000*%
%ADD67RotRect,2.200000X2.200000X52.185000*%
%ADD68RotRect,1.250000X2.200000X52.185000*%
%ADD69RotRect,2.200000X2.200000X221.597000*%
%ADD70RotRect,1.250000X2.200000X221.597000*%
%ADD71RotRect,2.200000X2.200000X139.286000*%
%ADD72RotRect,1.250000X2.200000X139.286000*%
%ADD73RoundRect,0.208334X0.791666X-0.791666X0.791666X0.791666X-0.791666X0.791666X-0.791666X-0.791666X0*%
%ADD74RotRect,2.200000X2.200000X200.420000*%
%ADD75RotRect,1.250000X2.200000X200.420000*%
%ADD76RotRect,2.200000X2.200000X259.286000*%
%ADD77RotRect,1.250000X2.200000X259.286000*%
%ADD78RoundRect,0.150000X0.150000X-0.587500X0.150000X0.587500X-0.150000X0.587500X-0.150000X-0.587500X0*%
%ADD79RotRect,2.200000X2.200000X349.286000*%
%ADD80RotRect,1.250000X2.200000X349.286000*%
%ADD81RotRect,2.200000X2.200000X31.008000*%
%ADD82RotRect,1.250000X2.200000X31.008000*%
%ADD83RoundRect,0.150000X-0.150000X0.825000X-0.150000X-0.825000X0.150000X-0.825000X0.150000X0.825000X0*%
%ADD84RoundRect,0.150000X0.587500X0.150000X-0.587500X0.150000X-0.587500X-0.150000X0.587500X-0.150000X0*%
%ADD85RoundRect,0.250000X-0.312500X-0.625000X0.312500X-0.625000X0.312500X0.625000X-0.312500X0.625000X0*%
%ADD86RotRect,2.200000X2.200000X306.303000*%
%ADD87RotRect,1.250000X2.200000X306.303000*%
%ADD88RotRect,2.200000X2.200000X229.286000*%
%ADD89RotRect,1.250000X2.200000X229.286000*%
%ADD90R,7.000000X3.500000*%
%ADD91RotRect,2.200000X2.200000X49.286000*%
%ADD92RotRect,1.250000X2.200000X49.286000*%
%ADD93RoundRect,0.250000X-0.250000X-0.475000X0.250000X-0.475000X0.250000X0.475000X-0.250000X0.475000X0*%
%ADD94RoundRect,0.250000X-0.475000X0.250000X-0.475000X-0.250000X0.475000X-0.250000X0.475000X0.250000X0*%
%ADD95RotRect,2.200000X2.200000X167.143000*%
%ADD96RotRect,1.250000X2.200000X167.143000*%
%ADD97RotRect,2.200000X2.200000X158.067000*%
%ADD98RotRect,1.250000X2.200000X158.067000*%
%ADD99RotRect,2.200000X2.200000X79.286000*%
%ADD100RotRect,1.250000X2.200000X79.286000*%
%ADD101RotRect,2.200000X2.200000X263.950000*%
%ADD102RotRect,1.250000X2.200000X263.950000*%
%ADD103RotRect,2.200000X2.200000X109.286000*%
%ADD104RotRect,1.250000X2.200000X109.286000*%
%ADD105RoundRect,0.500000X-0.500000X-1.400000X0.500000X-1.400000X0.500000X1.400000X-0.500000X1.400000X0*%
%ADD106RoundRect,0.375000X-0.625000X-0.375000X0.625000X-0.375000X0.625000X0.375000X-0.625000X0.375000X0*%
%ADD107RotRect,2.200000X2.200000X9.832000*%
%ADD108RotRect,1.250000X2.200000X9.832000*%
%ADD109RotRect,2.200000X2.200000X319.286000*%
%ADD110RotRect,1.250000X2.200000X319.286000*%
%ADD111RoundRect,0.250000X0.475000X-0.250000X0.475000X0.250000X-0.475000X0.250000X-0.475000X-0.250000X0*%
G04 APERTURE END LIST*
D10*
%TO.C,R5*%
X-20350000Y38912500D03*
X-20350000Y37262500D03*
%TD*%
D11*
%TO.C,LED32*%
X1889495Y74981596D03*
D12*
X-385307Y75011613D03*
%TD*%
D13*
%TO.C,R3*%
X-16887500Y40812500D03*
X-18537500Y40812500D03*
%TD*%
D14*
%TO.C,LED34*%
X51911183Y54139070D03*
D15*
X50250308Y55693779D03*
%TD*%
D16*
%TO.C,LED3*%
X-19408172Y-22893948D03*
D17*
X-17629494Y-24312374D03*
%TD*%
D13*
%TO.C,R14*%
X-6640000Y-19325000D03*
X-8290000Y-19325000D03*
%TD*%
D18*
%TO.C,LED25*%
X-41079527Y-62755736D03*
D19*
X-39161260Y-63978796D03*
%TD*%
D20*
%TO.C,U4*%
X-8070000Y-16100000D03*
X-6800000Y-16100000D03*
X-5530000Y-16100000D03*
X-4260000Y-16100000D03*
X-4260000Y-10750000D03*
X-5530000Y-10750000D03*
X-6800000Y-10750000D03*
X-8070000Y-10750000D03*
%TD*%
D21*
%TO.C,D3*%
X-6592500Y-21325000D03*
X-8467500Y-21325000D03*
%TD*%
D22*
%TO.C,R4*%
X12257046Y-19372892D03*
X15800000Y-16400000D03*
%TD*%
D10*
%TO.C,R15*%
X-19500000Y-3975000D03*
X-19500000Y-5625000D03*
%TD*%
D23*
%TO.C,U1*%
X-16850000Y38912500D03*
X-18750000Y38912500D03*
X-17800000Y37037500D03*
%TD*%
D24*
%TO.C,LED8*%
X49256534Y18189392D03*
D25*
X50007928Y16042058D03*
%TD*%
D26*
%TO.C,R10*%
X-5075000Y-20950000D03*
X-5075000Y-19300000D03*
%TD*%
D27*
%TO.C,LED2*%
X5798120Y-29448122D03*
D28*
X8016082Y-28941891D03*
%TD*%
D29*
%TO.C,C2*%
X300000Y35862500D03*
X300000Y45862500D03*
%TD*%
D13*
%TO.C,R7*%
X7550000Y-6585000D03*
X5900000Y-6585000D03*
%TD*%
D30*
%TO.C,LED20*%
X71601884Y-22337861D03*
D31*
X72253310Y-20158121D03*
%TD*%
D32*
%TO.C,DB2*%
X-14800000Y43462500D03*
X-14800000Y38362500D03*
X-5900000Y38362500D03*
X-5900000Y43462500D03*
%TD*%
D33*
%TO.C,C10*%
X-5100000Y-17850000D03*
X-3550000Y-17850000D03*
%TD*%
D34*
%TO.C,J2*%
X-16950000Y-2540000D03*
D35*
X-16950000Y0D03*
X-16950000Y2540000D03*
%TD*%
D36*
%TO.C,LED36*%
X74836089Y5036840D03*
D37*
X74656091Y7304704D03*
%TD*%
D10*
%TO.C,R13*%
X-3575000Y-19300000D03*
X-3575000Y-20950000D03*
%TD*%
D38*
%TO.C,LED1*%
X26638639Y-13827252D03*
D39*
X27625716Y-11777542D03*
%TD*%
D40*
%TO.C,C3*%
X-14800000Y9100000D03*
X-20200000Y9100000D03*
%TD*%
D41*
%TO.C,LED24*%
X-15636133Y-73357490D03*
D42*
X-13405586Y-73805020D03*
%TD*%
D43*
%TO.C,U3*%
X2430000Y-13850000D03*
X3700000Y-13850000D03*
X4970000Y-13850000D03*
X6240000Y-13850000D03*
X6240000Y-8900000D03*
X4970000Y-8900000D03*
X3700000Y-8900000D03*
X2430000Y-8900000D03*
%TD*%
D44*
%TO.C,C7*%
X-13737500Y-11850000D03*
X-18137500Y-11850000D03*
%TD*%
D45*
%TO.C,LED11*%
X-18189392Y49256534D03*
D46*
X-16042061Y50007928D03*
%TD*%
D47*
%TO.C,JP2*%
X-11600000Y-7610000D03*
X-11600000Y10000D03*
%TD*%
D48*
%TO.C,C8*%
X2300000Y-15825000D03*
X2300000Y-17375000D03*
%TD*%
D49*
%TO.C,LED4*%
X-30000000Y899999D03*
D50*
X-30000000Y-1375000D03*
%TD*%
D51*
%TO.C,LED7*%
X27419622Y12205503D03*
D52*
X26432547Y14255212D03*
%TD*%
D53*
%TO.C,LED5*%
X-18000866Y24016220D03*
D54*
X-19779544Y22597794D03*
%TD*%
D55*
%TO.C,D1*%
X20403400Y-10100000D03*
X16796600Y-10100000D03*
%TD*%
D56*
%TO.C,LED16*%
X-8875791Y-51752105D03*
D57*
X-11111132Y-51329167D03*
%TD*%
D58*
%TO.C,JP7*%
X-15983952Y33660038D03*
X-10151856Y19580114D03*
%TD*%
D13*
%TO.C,R6*%
X7550000Y-5085000D03*
X5900000Y-5085000D03*
%TD*%
D59*
%TO.C,LED17*%
X18189392Y-49256534D03*
D60*
X16042061Y-50007928D03*
%TD*%
D61*
%TO.C,LED27*%
X-72636422Y-18701876D03*
D62*
X-72042778Y-20898056D03*
%TD*%
D63*
%TO.C,R2*%
X-3337500Y46500000D03*
X-6262500Y46500000D03*
%TD*%
D64*
%TO.C,C5*%
X6575000Y-15850000D03*
X5025000Y-15850000D03*
%TD*%
D65*
%TO.C,LED29*%
X-66278300Y35114056D03*
D66*
X-67319151Y33091124D03*
%TD*%
D67*
%TO.C,LED21*%
X58697786Y-46694537D03*
D68*
X60092621Y-44897300D03*
%TD*%
D13*
%TO.C,R11*%
X-5365000Y-5970000D03*
X-7015000Y-5970000D03*
%TD*%
D69*
%TO.C,LED30*%
X-49118480Y56684963D03*
D70*
X-50819799Y55174619D03*
%TD*%
D71*
%TO.C,LED15*%
X-33562714Y-40380741D03*
D72*
X-35287108Y-38896795D03*
%TD*%
D73*
%TO.C,C1*%
X12000000Y10700000D03*
D29*
X12000000Y15700000D03*
%TD*%
D74*
%TO.C,LED31*%
X-25323996Y70601028D03*
D75*
X-27456035Y69807283D03*
%TD*%
D76*
%TO.C,LED19*%
X51752106Y-8875792D03*
D77*
X51329167Y-11111132D03*
%TD*%
D47*
%TO.C,JP4*%
X-14100000Y-3110000D03*
X-14100000Y4510000D03*
%TD*%
D33*
%TO.C,C15*%
X-11215000Y3000000D03*
X-9665000Y3000000D03*
%TD*%
D78*
%TO.C,D2*%
X2525000Y-6600000D03*
X4425000Y-6600000D03*
X3475000Y-4725000D03*
%TD*%
D79*
%TO.C,LED10*%
X8875791Y51752106D03*
D80*
X11111132Y51329167D03*
%TD*%
D81*
%TO.C,LED22*%
X37865445Y-64745795D03*
D82*
X39815337Y-63573811D03*
%TD*%
D58*
%TO.C,JP6*%
X8503916Y19825482D03*
X18300000Y31500000D03*
%TD*%
D83*
%TO.C,U5*%
X-4595000Y2500000D03*
X-5865000Y2500000D03*
X-7135000Y2500000D03*
X-8405000Y2500000D03*
X-8405000Y-2450000D03*
X-7135000Y-2450000D03*
X-5865000Y-2450000D03*
X-4595000Y-2450000D03*
%TD*%
D84*
%TO.C,U2*%
X-15900000Y-8200000D03*
X-15900000Y-6300000D03*
X-17775000Y-7250000D03*
%TD*%
D85*
%TO.C,R1*%
X18937500Y36300000D03*
X21862500Y36300000D03*
%TD*%
D86*
%TO.C,LED26*%
X-60975146Y-43678845D03*
D87*
X-59628220Y-45512262D03*
%TD*%
D48*
%TO.C,C16*%
X-3000000Y800000D03*
X-3000000Y-750000D03*
%TD*%
D47*
%TO.C,JP1*%
X-21800000Y-5220000D03*
X-21800000Y2400000D03*
%TD*%
D58*
%TO.C,JP5*%
X37100000Y-1532249D03*
X37100000Y18787751D03*
%TD*%
D13*
%TO.C,R9*%
X6625000Y-17400000D03*
X4975000Y-17400000D03*
%TD*%
D88*
%TO.C,LED18*%
X40380741Y-33562714D03*
D89*
X38896796Y-35287107D03*
%TD*%
D13*
%TO.C,R8*%
X6625000Y-19000000D03*
X4975000Y-19000000D03*
%TD*%
D58*
%TO.C,JP8*%
X-13100000Y34900000D03*
X-7267904Y20820075D03*
%TD*%
D90*
%TO.C,L1*%
X15600000Y-5250000D03*
X15600000Y5250000D03*
%TD*%
D47*
%TO.C,JP3*%
X-2800000Y-2600000D03*
X4820000Y-2600000D03*
%TD*%
D48*
%TO.C,C11*%
X-9700000Y-10750000D03*
X-9700000Y-12300000D03*
%TD*%
D91*
%TO.C,LED12*%
X-40380741Y33562714D03*
D92*
X-38896796Y35287107D03*
%TD*%
D93*
%TO.C,C4*%
X-800000Y-8200000D03*
X1100000Y-8200000D03*
%TD*%
D94*
%TO.C,C6*%
X-19837500Y-7400000D03*
X-19837500Y-9300000D03*
%TD*%
D95*
%TO.C,LED6*%
X7552991Y29047587D03*
D96*
X5335028Y29553817D03*
%TD*%
D97*
%TO.C,LED33*%
X28849018Y69235426D03*
D98*
X26738680Y70085189D03*
%TD*%
D64*
%TO.C,C9*%
X-5415000Y-8970000D03*
X-6965000Y-8970000D03*
%TD*%
D48*
%TO.C,C12*%
X-11200000Y-10750000D03*
X-11200000Y-12300000D03*
%TD*%
D99*
%TO.C,LED13*%
X-51752106Y8875791D03*
D100*
X-51329167Y11111132D03*
%TD*%
D34*
%TO.C,J1*%
X-11200000Y5500000D03*
D35*
X-8660000Y5500000D03*
X-6120000Y5500000D03*
X-3580000Y5500000D03*
%TD*%
D48*
%TO.C,C14*%
X-1500000Y800000D03*
X-1500000Y-750000D03*
%TD*%
D101*
%TO.C,LED28*%
X-74487415Y8799710D03*
D102*
X-74727192Y6537381D03*
%TD*%
D13*
%TO.C,R12*%
X-5365000Y-7470000D03*
X-7015000Y-7470000D03*
%TD*%
D51*
%TO.C,LED35*%
X67963318Y31730069D03*
D52*
X66976243Y33779778D03*
%TD*%
D32*
%TO.C,DB1*%
X17063978Y36300000D03*
X17063978Y41400000D03*
X8163978Y41400000D03*
X8163978Y36300000D03*
%TD*%
D58*
%TO.C,RV1*%
X4113978Y36350000D03*
X4113978Y41350000D03*
%TD*%
D103*
%TO.C,LED14*%
X-49256534Y-18189392D03*
D104*
X-50007928Y-16042061D03*
%TD*%
D105*
%TO.C,Q1*%
X14600000Y-10950000D03*
D106*
X8300000Y-8650000D03*
X8300000Y-13250000D03*
%TD*%
D107*
%TO.C,LED23*%
X11920206Y-74052135D03*
D108*
X14161792Y-73663656D03*
%TD*%
D109*
%TO.C,LED9*%
X33562714Y40380741D03*
D110*
X35287107Y38896796D03*
%TD*%
D111*
%TO.C,C17*%
X-19700000Y-2500000D03*
X-19700000Y-600000D03*
%TD*%
D64*
%TO.C,C13*%
X-6690000Y-17850000D03*
X-8240000Y-17850000D03*
%TD*%
M02*
